# Blender v2.81 (sub 16) OBJ File: 'section2.blend'
# www.blender.org
mtllib bookshelf.mtl
o Cube.010_Cube.011
v 19.774221 0.154800 -8.768085
v 19.774221 2.044921 -8.768085
v 19.658731 0.039309 -9.776359
v 19.658731 2.160412 -9.776359
v 21.664343 0.154800 -8.768085
v 21.664343 2.044921 -8.768085
v 21.779833 0.039309 -9.776359
v 21.779833 2.160412 -9.776359
v 19.797009 3.615413 -8.768085
v 19.658731 3.753691 -9.776359
v 21.779833 3.753691 -9.776359
v 21.641556 3.615413 -8.768085
v 19.658731 0.039309 -8.768085
v 19.797009 2.298690 -8.768085
v 21.641556 2.298690 -8.768085
v 21.779833 0.039309 -8.768085
v 21.779833 2.160412 -8.768085
v 19.658731 2.160412 -8.768085
v 21.779833 3.753691 -8.768085
v 19.658731 3.753691 -8.768085
v 19.774221 0.154800 -9.426054
v 19.774221 2.044921 -9.426054
v 21.664343 2.044921 -9.426054
v 21.664343 0.154800 -9.426054
v 21.641556 2.298690 -9.426054
v 19.797009 2.298690 -9.426054
v 21.641556 3.615413 -9.426054
v 19.797009 3.615413 -9.426054
v 19.872494 2.327812 -8.795011
v 21.566071 2.327812 -8.795011
v 21.566071 2.327812 -9.399128
v 19.872494 2.327812 -9.399128
v 21.566071 2.981203 -8.795011
v 19.872494 2.981203 -8.795011
v 21.566071 2.981203 -9.399128
v 19.872494 2.981203 -9.399128
v 19.872494 0.178122 -8.795011
v 21.566071 0.178122 -8.795011
v 21.566071 0.178122 -9.399128
v 19.872494 0.178122 -9.399128
v 21.566071 0.831513 -8.795011
v 19.872494 0.831513 -8.795011
v 21.566071 0.831513 -9.399128
v 19.872494 0.831513 -9.399128
v 19.872494 0.844594 -8.795011
v 21.566071 0.844594 -8.795011
v 21.566071 0.844594 -9.399128
v 19.872494 0.844594 -9.399128
v 21.566071 1.497985 -8.795011
v 19.872494 1.497985 -8.795011
v 21.566071 1.497985 -9.399128
v 19.872494 1.497985 -9.399128
v 21.566071 0.967197 -9.399128
v 21.566071 0.967197 -8.795011
v 19.872494 0.967197 -8.795011
v 19.872494 0.967197 -9.399128
vt 0.442062 0.501708
vt 0.442062 0.215207
vt 0.547130 0.215207
vt 0.547130 0.501708
vt 0.221031 0.000000
vt 0.221031 0.286501
vt 0.000000 0.286501
vt 0.000000 0.000000
vt 0.652198 0.000000
vt 0.652198 0.286501
vt 0.547130 0.286501
vt 0.547130 0.000000
vt 0.196961 1.000000
vt 0.196961 0.750854
vt 0.265526 0.750854
vt 0.265526 1.000000
vt 0.334171 0.788209
vt 0.334171 0.501708
vt 0.439239 0.501708
vt 0.439239 0.788209
vt 0.652198 0.501708
vt 0.547130 0.501708
vt 0.544307 0.501708
vt 0.544307 0.788209
vt 0.439239 0.788209
vt 0.439239 0.501708
vt 0.442062 0.000000
vt 0.547130 0.000000
vt 0.577565 0.856520
vt 0.710954 0.856520
vt 0.710954 0.947939
vt 0.577565 0.947939
vt 0.221031 0.501708
vt 0.000000 0.501708
vt 0.430027 0.486108
vt 0.430027 0.230806
vt 0.233066 0.230806
vt 0.233066 0.486108
vt 0.221031 0.501708
vt 0.221031 0.215207
vt 0.235440 0.196529
vt 0.427653 0.196529
vt 0.427653 0.018677
vt 0.235440 0.018677
vt 0.221031 0.000000
vt 0.194219 0.760666
vt 0.002743 0.760666
vt 0.002743 0.498051
vt 0.194219 0.498051
vt 0.196961 0.750854
vt 0.196961 0.501708
vt 0.334171 0.501708
vt 0.334171 0.750854
vt 0.544307 0.757010
vt 0.544307 0.501708
vt 0.612871 0.501708
vt 0.612872 0.757010
vt 0.753175 0.389937
vt 0.619786 0.389937
vt 0.619786 0.298518
vt 0.753175 0.298518
vt 0.201284 0.078342
vt 0.009808 0.078342
vt 0.009808 -0.013077
vt 0.201284 -0.013077
vt 0.265526 1.000000
vt 0.265526 0.750854
vt 0.334090 0.750854
vt 0.334090 1.000000
vt 0.681436 0.757010
vt 0.681436 0.501708
vt 0.750000 0.501708
vt 0.750000 0.757010
vt 0.577565 0.130777
vt 0.386089 0.130777
vt 0.386089 0.039358
vt 0.577565 0.039358
vt 0.134138 0.361929
vt 0.121828 0.443405
vt 0.350237 0.477915
vt 0.362547 0.396439
vt 0.134138 0.361929
vt 0.362547 0.396439
vt 0.350237 0.477915
vt 0.121828 0.443405
vt 0.208107 0.369706
vt 0.289583 0.382016
vt 0.276268 0.470137
vt 0.194793 0.457827
vt 0.486490 0.009817
vt 0.486490 0.314402
vt 0.368979 0.314402
vt 0.368979 0.009817
vt 0.289583 0.382016
vt 0.208107 0.369706
vt 0.194793 0.457827
vt 0.276268 0.470137
vt 0.363049 0.393116
vt 0.134640 0.358606
vt 0.121326 0.446728
vt 0.349735 0.481237
vt 0.134138 0.361929
vt 0.121828 0.443405
vt 0.350237 0.477915
vt 0.362547 0.396439
vt 0.134138 0.361929
vt 0.362547 0.396439
vt 0.350237 0.477915
vt 0.121828 0.443405
vt 0.208107 0.369706
vt 0.289583 0.382016
vt 0.276268 0.470137
vt 0.194793 0.457827
vt 0.486490 0.009817
vt 0.486490 0.314402
vt 0.368979 0.314402
vt 0.368979 0.009817
vt 0.289583 0.382016
vt 0.208107 0.369706
vt 0.194793 0.457827
vt 0.276268 0.470137
vt 0.363049 0.393116
vt 0.134640 0.358606
vt 0.121326 0.446728
vt 0.349735 0.481237
vt 0.134138 0.361929
vt 0.121828 0.443405
vt 0.350237 0.477915
vt 0.362547 0.396439
vt 0.134138 0.361929
vt 0.362547 0.396439
vt 0.350237 0.477915
vt 0.121828 0.443405
vt 0.205608 0.386241
vt 0.287084 0.398551
vt 0.276268 0.470137
vt 0.194793 0.457827
vt 0.464440 0.009817
vt 0.464440 0.314402
vt 0.368979 0.314402
vt 0.368979 0.009817
vt 0.287084 0.398551
vt 0.205608 0.386241
vt 0.194793 0.457827
vt 0.276268 0.470137
vt 0.360551 0.409651
vt 0.132142 0.375141
vt 0.121326 0.446728
vt 0.349735 0.481237
vt 0.363049 0.393116
vt 0.134640 0.358606
vt 0.289583 0.382016
vt 0.208107 0.369706
vt 0.033365 0.378957
vt 0.033365 0.683542
vt 0.011315 0.683542
vt 0.011315 0.378957
vt 0.208107 0.369706
vt 0.289583 0.382016
vn -1.0000 0.0000 0.0000
vn 0.0000 0.0000 -1.0000
vn 1.0000 0.0000 0.0000
vn 0.0000 1.0000 0.0000
vn 0.0000 -1.0000 0.0000
vn 0.0000 0.0000 1.0000
g Cube.010_Cube.011_wood01
usemtl wood01
s off
f 13/1/1 18/2/1 4/3/1 3/4/1
f 3/5/2 4/6/2 8/7/2 7/8/2
f 7/9/3 8/10/3 17/11/3 16/12/3
f 14/13/4 15/14/4 25/15/4 26/16/4
f 3/17/5 7/18/5 16/19/5 13/20/5
f 17/11/3 8/10/3 11/21/3 19/22/3
f 11/23/4 10/24/4 20/25/4 19/26/4
f 4/3/1 18/2/1 20/27/1 10/28/1
f 15/29/1 12/30/1 27/31/1 25/32/1
f 8/7/2 4/6/2 10/33/2 11/34/2
f 1/35/6 2/36/6 18/2/6 13/1/6
f 6/37/6 5/38/6 16/39/6 17/40/6
f 5/38/6 1/35/6 13/1/6 16/39/6
f 2/36/6 6/37/6 17/40/6 18/2/6
f 15/41/6 14/42/6 18/2/6 17/40/6
f 9/43/6 12/44/6 19/45/6 20/27/6
f 12/44/6 15/41/6 17/40/6 19/45/6
f 14/42/6 9/43/6 20/27/6 18/2/6
f 24/46/6 23/47/6 22/48/6 21/49/6
f 26/50/6 25/51/6 27/52/6 28/53/6
f 1/54/4 5/55/4 24/56/4 21/57/4
f 9/58/3 14/59/3 26/60/3 28/61/3
f 2/62/3 1/63/3 21/64/3 22/65/3
f 12/66/5 9/67/5 28/68/5 27/69/5
f 6/70/5 2/71/5 22/72/5 23/73/5
f 5/74/1 6/75/1 23/76/1 24/77/1
g Cube.010_Cube.011_books
usemtl books
f 29/78/5 32/79/5 31/80/5 30/81/5
f 34/82/4 33/83/4 35/84/4 36/85/4
f 30/86/3 31/87/3 35/88/3 33/89/3
f 29/90/6 30/91/6 33/92/6 34/93/6
f 32/94/1 29/95/1 34/96/1 36/97/1
f 31/98/2 32/99/2 36/100/2 35/101/2
f 37/102/5 40/103/5 39/104/5 38/105/5
f 42/106/4 41/107/4 43/108/4 44/109/4
f 38/110/3 39/111/3 43/112/3 41/113/3
f 37/114/6 38/115/6 41/116/6 42/117/6
f 40/118/1 37/119/1 42/120/1 44/121/1
f 39/122/2 40/123/2 44/124/2 43/125/2
f 45/126/5 48/127/5 47/128/5 46/129/5
f 50/130/4 49/131/4 51/132/4 52/133/4
f 54/134/3 53/135/3 51/136/3 49/137/3
f 55/138/6 54/139/6 49/140/6 50/141/6
f 56/142/1 55/143/1 50/144/1 52/145/1
f 53/146/2 56/147/2 52/148/2 51/149/2
f 47/150/2 48/151/2 56/147/2 53/146/2
f 48/152/1 45/153/1 55/143/1 56/142/1
f 45/154/6 46/155/6 54/156/6 55/157/6
f 46/158/3 47/159/3 53/135/3 54/134/3
