# Blender v2.81 (sub 16) OBJ File: 'section2.blend'
# www.blender.org
mtllib bottom.mtl
o Plane.004
v 7.743807 -1.770256 22.262041
v 22.875275 -1.770256 22.262041
v 7.743807 -1.223004 7.130575
v 22.875275 -1.770256 7.130575
v 7.743807 -1.770256 14.696308
v 15.309541 1.739523 22.262041
v 22.871986 -1.756926 14.692142
v 15.309540 -1.770256 7.130575
v 15.309541 1.769314 14.696308
v 7.743807 -1.770256 18.479174
v 19.092407 -0.967911 22.262041
v 22.875275 -1.770256 10.913442
v 11.526673 -1.747022 7.130575
v 7.743807 0.300726 10.913441
v 11.526674 0.021404 22.262041
v 22.797829 -1.456292 18.381039
v 19.092407 -1.770256 7.130575
v 15.309541 0.639238 10.913442
v 15.309541 1.569294 18.479176
v 11.526673 1.931094 14.696308
v 19.014961 0.519153 14.598171
v 18.799324 1.252430 18.107792
v 11.526674 1.021065 18.479176
v 11.526673 0.998113 10.913442
v 19.092407 0.631633 10.913442
v 7.743807 -1.770256 20.370607
v 20.983841 -1.770256 22.262041
v 22.875275 -1.770256 9.022008
v 9.635241 -1.223004 7.130575
v 7.743807 -1.223004 12.804874
v 13.418107 0.314060 22.262041
v 22.797829 -1.456292 16.489605
v 17.200974 -1.770256 7.130575
v 15.309541 -0.467786 9.022008
v 15.309541 1.357182 16.587742
v 9.635241 0.097738 14.696308
v 17.199820 1.354256 14.694845
v 7.743807 -1.770256 16.587742
v 17.200974 1.266082 22.262041
v 22.875275 -1.770256 12.804874
v 13.418107 -1.770256 7.130575
v 7.743807 0.300726 9.022008
v 9.635241 -1.296814 22.262041
v 22.871986 -1.756926 20.366442
v 20.983841 -1.770256 7.130575
v 15.309541 1.241085 12.804874
v 15.309541 3.041994 20.370607
v 13.418107 2.058885 14.696308
v 20.906395 -0.073515 14.598171
v 18.799324 1.440292 16.216358
v 19.014961 0.825223 20.272470
v 17.137270 1.517712 18.398453
v 20.690758 1.012898 18.107792
v 11.526674 1.051370 16.587742
v 11.526674 1.323874 20.370607
v 9.635241 0.255669 18.479176
v 13.418107 1.043092 18.479176
v 11.526673 0.137600 9.022008
v 11.526673 1.931094 12.804874
v 9.635241 1.624965 10.913441
v 13.418107 0.510288 10.913442
v 19.092407 0.246854 9.022008
v 19.092407 0.639706 12.804874
v 17.200974 0.631633 10.913442
v 20.983841 0.246855 10.913442
v 20.983841 -0.467786 12.804874
v 17.200974 0.821839 12.804874
v 17.200974 -0.467786 9.022008
v 13.418107 1.931458 12.804874
v 9.635241 0.573790 12.804874
v 9.635241 1.603197 9.022008
v 13.418107 1.616531 20.370607
v 9.635241 0.005656 20.370607
v 9.635241 0.256356 16.587742
v 20.906395 -0.073513 20.272470
v 17.197685 2.585385 20.366442
v 17.137270 1.607828 16.507019
v 20.690758 1.012898 16.216358
v 13.418107 1.226288 16.587742
v 13.418107 -0.467786 9.022008
v 20.983841 0.246854 9.022008
vt 0.875000 0.875000
vt 1.000000 0.875000
vt 1.000000 1.000000
vt 0.875000 1.000000
vt 0.375000 0.875000
vt 0.500000 0.875000
vt 0.500000 1.000000
vt 0.375000 1.000000
vt 0.375000 0.375000
vt 0.500000 0.375000
vt 0.500000 0.500000
vt 0.375000 0.500000
vt 0.875000 0.375000
vt 1.000000 0.375000
vt 1.000000 0.500000
vt 0.875000 0.500000
vt 0.625000 0.375000
vt 0.750000 0.375000
vt 0.750000 0.500000
vt 0.625000 0.500000
vt 0.625000 0.125000
vt 0.750000 0.125000
vt 0.750000 0.250000
vt 0.625000 0.250000
vt 0.875000 0.125000
vt 1.000000 0.125000
vt 1.000000 0.250000
vt 0.875000 0.250000
vt 0.125000 0.375000
vt 0.250000 0.375000
vt 0.250000 0.500000
vt 0.125000 0.500000
vt 0.125000 0.125000
vt 0.250000 0.125000
vt 0.250000 0.250000
vt 0.125000 0.250000
vt 0.375000 0.125000
vt 0.500000 0.125000
vt 0.500000 0.250000
vt 0.375000 0.250000
vt 0.125000 0.875000
vt 0.250000 0.875000
vt 0.250000 1.000000
vt 0.125000 1.000000
vt 0.125000 0.625000
vt 0.250000 0.625000
vt 0.250000 0.750000
vt 0.125000 0.750000
vt 0.375000 0.625000
vt 0.500000 0.625000
vt 0.500000 0.750000
vt 0.375000 0.750000
vt 0.625000 0.875000
vt 0.750000 0.875000
vt 0.750000 1.000000
vt 0.625000 1.000000
vt 0.625000 0.625000
vt 0.750000 0.625000
vt 0.750000 0.750000
vt 0.625000 0.750000
vt 0.875000 0.625000
vt 1.000000 0.625000
vt 1.000000 0.750000
vt 0.875000 0.750000
vt 0.000000 0.625000
vt 0.000000 0.750000
vt 0.000000 0.500000
vt 0.000000 0.875000
vt 0.000000 1.000000
vt 0.250000 0.000000
vt 0.375000 0.000000
vt 0.500000 0.000000
vt 0.000000 0.125000
vt 0.000000 0.250000
vt 0.000000 0.000000
vt 0.125000 0.000000
vt 0.000000 0.375000
vt 0.750000 0.000000
vt 0.875000 0.000000
vt 1.000000 0.000000
vt 0.625000 0.000000
vn 0.4257 0.7984 -0.4257
vn 0.0000 0.8236 -0.5672
vn 0.0398 0.9491 0.3123
vn 0.7068 0.6743 -0.2139
vn 0.2337 0.9255 -0.2980
vn 0.4824 0.8602 -0.1655
vn 0.6935 0.6965 0.1843
vn -0.5637 0.8113 0.1547
vn -0.4824 0.8759 -0.0122
vn -0.4132 0.8010 -0.4332
vn 0.3128 0.5947 -0.7406
vn -0.1895 0.9814 0.0307
vn 0.1298 0.8744 -0.4676
vn -0.1406 0.7442 -0.6530
vn 0.0480 0.9975 -0.0523
vn 0.6530 0.7442 0.1406
vn 0.3615 0.9165 0.1712
vn 0.4094 0.9109 -0.0518
vn 0.6116 0.7877 -0.0738
vn 0.1098 0.9729 -0.2037
vn 0.2077 0.9419 -0.2641
vn 0.2608 0.9600 -0.1018
vn 0.0017 0.8638 -0.5038
vn -0.1732 0.9168 -0.3597
vn 0.1088 0.8440 -0.5252
vn -0.0338 0.9989 -0.0336
vn 0.2473 0.9547 -0.1655
vn -0.5635 0.6829 0.4649
vn -0.6830 0.7050 0.1907
vn -0.6418 0.7609 0.0958
vn -0.2204 0.6401 -0.7360
vn -0.5703 0.8214 -0.0047
vn 0.4742 0.8574 -0.2000
vn -0.0808 0.9710 -0.2249
vn -0.1264 0.8170 0.5626
vn -0.5274 0.6998 0.4819
vn -0.7081 0.7046 0.0466
vn -0.4901 0.8242 0.2838
vn -0.4978 0.7143 0.4919
vn -0.7170 0.6964 -0.0292
vn -0.7310 0.6824 0.0001
vn -0.3813 0.9244 0.0076
vn 0.2755 0.9157 0.2927
vn 0.3228 0.7178 0.6170
vn 0.3642 0.8552 0.3688
vn 0.1010 0.8303 -0.5481
vn 0.1989 0.8058 0.5577
vn 0.6544 0.5967 0.4644
vn 0.0451 0.9980 0.0435
vn -0.0558 0.9979 -0.0322
vn 0.1412 0.9873 0.0726
vn 0.2268 0.8409 -0.4914
vn 0.1734 0.9836 0.0488
vn 0.7607 0.6491 0.0000
vn -0.0727 0.9086 0.4113
vn -0.0519 0.9971 0.0563
vn -0.1711 0.9852 -0.0075
vn 0.1261 0.7587 -0.6392
vn 0.2516 0.8705 -0.4231
vn -0.0298 0.8754 -0.4825
vn 0.0000 0.6840 -0.7295
vn 0.1007 0.9898 -0.1007
vn 0.7295 0.6840 -0.0000
g Plane.004_Plane.004_CaveWall
usemtl CaveWall
s off
f 81/1/1 28/2/1 4/3/1 45/4/1
f 80/5/2 34/6/2 8/7/2 41/8/2
f 79/9/3 35/10/3 9/11/3 48/12/3
f 78/13/4 32/14/4 7/15/4 49/16/4
f 77/17/5 50/18/5 21/19/5 37/20/5
f 76/21/6 51/22/6 22/23/6 52/24/6
f 75/25/7 44/26/7 16/27/7 53/28/7
f 74/29/8 54/30/8 20/31/8 36/32/8
f 73/33/9 55/34/9 23/35/9 56/36/9
f 72/37/10 47/38/10 19/39/10 57/40/10
f 71/41/11 58/42/11 13/43/11 29/44/11
f 70/45/12 59/46/12 24/47/12 60/48/12
f 69/49/13 46/50/13 18/51/13 61/52/13
f 68/53/14 62/54/14 17/55/14 33/56/14
f 67/57/15 63/58/15 25/59/15 64/60/15
f 66/61/16 40/62/16 12/63/16 65/64/16
f 63/58/17 66/61/17 65/64/17 25/59/17
f 21/19/18 49/16/18 66/61/18 63/58/18
f 49/16/19 7/15/19 40/62/19 66/61/19
f 46/50/20 67/57/20 64/60/20 18/51/20
f 9/11/21 37/20/21 67/57/21 46/50/21
f 37/20/22 21/19/22 63/58/22 67/57/22
f 34/6/2 68/53/2 33/56/2 8/7/2
f 18/51/23 64/60/23 68/53/23 34/6/23
f 64/60/24 25/59/24 62/54/24 68/53/24
f 59/46/25 69/49/25 61/52/25 24/47/25
f 20/31/26 48/12/26 69/49/26 59/46/26
f 48/12/27 9/11/27 46/50/27 69/49/27
f 30/65/28 70/45/28 60/48/28 14/66/28
f 5/67/29 36/32/29 70/45/29 30/65/29
f 36/32/30 20/31/30 59/46/30 70/45/30
f 42/68/31 71/41/31 29/44/31 3/69/31
f 14/66/32 60/48/32 71/41/32 42/68/32
f 60/48/33 24/47/33 58/42/33 71/41/33
f 55/34/34 72/37/34 57/40/34 23/35/34
f 15/70/35 31/71/35 72/37/35 55/34/35
f 31/71/36 6/72/36 47/38/36 72/37/36
f 26/73/37 73/33/37 56/36/37 10/74/37
f 1/75/38 43/76/38 73/33/38 26/73/38
f 43/76/39 15/70/39 55/34/39 73/33/39
f 38/77/40 74/29/40 36/32/40 5/67/40
f 10/74/41 56/36/41 74/29/41 38/77/41
f 56/36/42 23/35/42 54/30/42 74/29/42
f 51/22/43 75/25/43 53/28/43 22/23/43
f 11/78/44 27/79/44 75/25/44 51/22/44
f 27/79/45 2/80/45 44/26/45 75/25/45
f 47/38/46 76/21/46 52/24/46 19/39/46
f 6/72/47 39/81/47 76/21/47 47/38/47
f 39/81/48 11/78/48 51/22/48 76/21/48
f 35/10/49 77/17/49 37/20/49 9/11/49
f 19/39/50 52/24/50 77/17/50 35/10/50
f 52/24/51 22/23/51 50/18/51 77/17/51
f 50/18/52 78/13/52 49/16/52 21/19/52
f 22/23/53 53/28/53 78/13/53 50/18/53
f 53/28/54 16/27/54 32/14/54 78/13/54
f 54/30/55 79/9/55 48/12/55 20/31/55
f 23/35/56 57/40/56 79/9/56 54/30/56
f 57/40/57 19/39/57 35/10/57 79/9/57
f 58/42/58 80/5/58 41/8/58 13/43/58
f 24/47/59 61/52/59 80/5/59 58/42/59
f 61/52/60 18/51/60 34/6/60 80/5/60
f 62/54/61 81/1/61 45/4/61 17/55/61
f 25/59/62 65/64/62 81/1/62 62/54/62
f 65/64/63 12/63/63 28/2/63 81/1/63
