# Blender v2.81 (sub 16) OBJ File: 'section2.blend'
# www.blender.org
mtllib button_panel.mtl
o Cube.012
v -17.047913 -0.056103 6.607754
v -18.122799 -0.056103 6.607754
v -18.122799 1.943896 6.607754
v -17.047913 -0.056103 4.607754
v -18.122801 -0.056103 4.607754
v -18.122801 1.943896 4.607754
v -17.096186 1.310036 6.539486
v -17.681772 1.895623 6.539486
v -17.681772 1.895623 4.676023
v -17.096186 1.310037 4.676023
v -17.047913 1.261764 4.607754
v -17.730045 1.943896 4.607754
v -17.730045 1.943896 6.607754
v -17.047913 1.261763 6.607754
v -17.120350 1.285873 4.676023
v -17.705936 1.871460 4.676023
v -17.705936 1.871460 6.539486
v -17.120350 1.285873 6.539486
vt 0.420549 0.548829
vt 0.653092 0.548829
vt 0.653092 0.633799
vt 0.420549 0.633799
vt 0.327309 0.276287
vt 0.501673 0.276287
vt 0.501673 0.450651
vt 0.327309 0.450651
vt 0.188005 0.083742
vt 0.341236 0.083742
vt 0.420549 0.231317
vt 0.420549 0.316286
vt 0.188005 0.316286
vt 0.152945 0.450651
vt 0.327309 0.625015
vt 0.152945 0.625015
vt 0.188005 0.548829
vt 0.341236 0.781373
vt 0.188005 0.781373
vt 0.248986 0.895972
vt 0.248986 0.980354
vt 0.248986 0.980354
vt 0.248986 0.895972
vt 0.236881 0.013576
vt 0.778195 0.013576
vt 0.778195 0.835077
vt 0.236881 0.835077
vt 0.174243 0.738553
vt 0.740362 0.738553
vt 0.787030 0.758519
vt 0.127574 0.758519
vt 0.174243 0.193557
vt 0.127574 0.173591
vt 0.740362 0.193557
vt 0.787030 0.173591
vt 0.174243 0.738553
vt 0.174243 0.193557
vt 0.740362 0.193557
vt 0.740362 0.738553
vt 0.161333 0.980354
vt 0.161333 0.895972
vt 0.161333 0.895972
vt 0.161333 0.980354
vn 0.0000 1.0000 0.0000
vn -1.0000 0.0000 0.0000
vn 0.0000 0.0000 1.0000
vn 0.0000 -1.0000 0.0000
vn -0.0000 0.0000 -1.0000
vn -0.7071 0.7071 0.0000
vn 1.0000 0.0000 0.0000
vn 0.7071 0.7071 0.0000
vn 0.7071 -0.7071 0.0000
g Cube.012_Cube.012_metal01
usemtl metal01
s off
f 6/1/1 3/2/1 13/3/1 12/4/1
f 2/5/2 3/6/2 6/7/2 5/8/2
f 1/9/3 14/10/3 13/11/3 3/12/3 2/13/3
f 2/14/4 5/8/4 4/15/4 1/16/4
f 5/17/5 6/1/5 12/4/5 11/18/5 4/19/5
f 7/20/6 10/21/6 15/22/6 18/23/6
f 4/24/7 11/25/7 14/26/7 1/27/7
f 9/28/8 10/29/8 11/30/8 12/31/8
f 8/32/8 9/28/8 12/31/8 13/33/8
f 7/34/8 8/32/8 13/33/8 14/35/8
f 10/29/8 7/34/8 14/35/8 11/30/8
f 16/36/8 17/37/8 18/38/8 15/39/8
f 9/40/9 8/41/9 17/42/9 16/43/9
f 8/41/5 7/20/5 18/23/5 17/42/5
f 10/21/3 9/40/3 16/43/3 15/22/3
