# Blender v2.81 (sub 16) OBJ File: 'section2.blend'
# www.blender.org
mtllib cavewall.mtl
o Icosphere
v -81.970085 -48.609177 -13.955089
v -46.796101 -21.738953 11.600004
v -95.405090 -21.738968 27.394300
v -125.447441 -21.738762 -13.955089
v -95.405090 -21.738968 -55.304482
v -46.796101 -21.738953 -39.510185
v -68.535080 21.739044 27.394300
v -117.144073 21.739025 11.600004
v -117.144073 21.739025 -39.510185
v -68.535080 21.739044 -55.304482
v -38.492729 21.738838 -13.955089
v -81.970085 48.609253 -13.955089
v -89.866920 -41.349606 10.349287
v -61.295486 -41.349594 1.065712
v -69.192238 -25.555653 25.370333
v -40.620762 -25.555573 -13.955089
v -61.295486 -41.349594 -28.975889
v -107.525398 -41.349472 -13.955089
v -115.422432 -25.555588 10.349367
v -89.866920 -41.349606 -38.259468
v -115.422432 -25.555588 -38.259544
v -69.192238 -25.555653 -53.280510
v -35.739910 0.000037 1.065771
v -35.739910 0.000037 -28.975948
v -81.970085 0.000037 34.654129
v -53.398285 0.000037 25.370577
v -128.200256 0.000037 1.065771
v -110.541885 0.000037 25.370577
v -110.541885 0.000037 -53.280754
v -128.200256 0.000037 -28.975948
v -53.398285 0.000037 -53.280754
v -81.970085 0.000037 -62.564301
v -48.517738 25.555664 10.349367
v -94.747932 25.555729 25.370333
v -123.319412 25.555649 -13.955089
v -94.747932 25.555729 -53.280510
v -48.517738 25.555664 -38.259544
v -74.073250 41.349678 10.349287
v -56.414772 41.349548 -13.955089
v -102.644684 41.349670 1.065712
v -102.644684 41.349670 -28.975889
v -74.073250 41.349678 -38.259468
vt -0.578367 1.364842
vt -0.262829 1.949377
vt -0.804918 2.097866
vt -1.080409 2.714776
vt -1.409588 2.097870
vt -0.237373 1.064131
vt -0.763736 0.665515
vt -1.114493 1.304402
vt -1.536301 2.742852
vt 0.227926 -1.321200
vt -0.219799 -0.998620
vt 0.066004 -1.742852
vt 1.129444 -0.538674
vt 0.705069 -0.078711
vt 0.705068 -0.998630
vt 2.160422 1.354444
vt 1.951428 2.099187
vt 1.623193 1.322830
vt -1.159365 -1.321205
vt -1.212128 -0.538673
vt -1.607089 -0.998642
vt 1.970778 0.322138
vt 1.710117 -0.309179
vt 2.314408 -0.276711
vt 0.175166 -0.538666
vt 1.167495 0.205550
vt 2.489648 1.921678
vt -0.682225 -0.998628
vt 1.501122 -1.053921
vt 1.702991 -1.742852
vt 2.038352 -1.085535
vt 1.132346 1.364846
vt 0.639746 1.304402
vt 0.893660 0.665513
vt 0.605662 2.714777
vt 0.330172 2.097866
vt 0.934841 2.097871
vt -1.159368 0.243861
vt -0.749696 0.665513
vt -1.321290 0.665513
vt -0.257850 -0.538664
vt -0.219799 0.205557
vt -0.682226 -0.078709
vt -0.237373 1.064131
vt 0.103620 1.364843
vt -0.211918 1.949378
vt 0.083173 2.742852
vt 0.288989 0.665515
vt 1.167495 -1.372753
vt 2.307277 -1.710377
vt 2.529198 -0.998675
vt -1.607093 -0.078719
vt 2.213589 2.730504
vt 1.690767 2.730504
vt 1.061555 2.742852
vt 0.637596 0.665513
vt 0.227929 0.243866
vt -0.219795 -0.078697
vt 1.171897 -0.486687
vt 2.494050 1.035612
vt 1.347137 2.131655
vt 1.132346 1.409691
vt 1.447956 0.322138
vt -0.219799 -1.282889
vt -0.749698 -1.742852
vt -1.607093 1.364846
vt -1.368407 0.665513
vt 1.958553 0.665513
vt 1.354267 0.697988
vt 1.167495 -1.282896
vt 0.637598 -1.742852
vt -0.557919 2.742852
vn 0.0000 1.0000 0.0000
vn 0.1625 0.8506 -0.5000
vn -0.4253 0.8506 -0.3090
vn -0.7236 0.4472 -0.5257
vn -0.8506 0.5257 0.0000
vn 0.5257 0.8506 0.0000
vn 0.1625 0.8506 0.5000
vn -0.4253 0.8506 0.3090
vn -0.9510 0.0000 -0.3090
vn 0.2764 0.4472 -0.8506
vn 0.0000 0.0000 -1.0000
vn -0.2629 0.5257 -0.8090
vn 0.8944 0.4472 0.0000
vn 0.9510 0.0000 -0.3090
vn 0.6882 0.5257 -0.5000
vn 0.2764 0.4472 0.8506
vn 0.5878 0.0000 0.8090
vn 0.6882 0.5257 0.5000
vn -0.7236 0.4472 0.5257
vn -0.5878 0.0000 0.8090
vn -0.2629 0.5257 0.8090
vn -0.5878 0.0000 -0.8090
vn 0.5878 0.0000 -0.8090
vn 0.9510 0.0000 0.3090
vn 0.0000 0.0000 1.0000
vn -0.9510 0.0000 0.3090
vn -0.2764 -0.4472 -0.8506
vn -0.1625 -0.8506 -0.5000
vn -0.6882 -0.5257 -0.5000
vn 0.7236 -0.4472 -0.5257
vn 0.4253 -0.8506 -0.3090
vn 0.2629 -0.5257 -0.8090
vn 0.7236 -0.4472 0.5257
vn 0.4253 -0.8506 0.3090
vn 0.8506 -0.5257 0.0000
vn -0.2764 -0.4472 0.8506
vn -0.1625 -0.8506 0.5000
vn 0.2629 -0.5257 0.8090
vn -0.8944 -0.4472 0.0000
vn -0.5257 -0.8506 0.0000
vn -0.6882 -0.5257 0.5000
vn 0.0000 -1.0000 0.0000
g Icosphere_Icosphere_CaveWall
usemtl CaveWall
s 1
f 1/1/1 13/2/2 14/3/3
f 2/4/4 16/5/5 14/3/3
f 1/1/1 18/6/6 13/2/2
f 1/1/1 20/7/7 18/6/6
f 1/1/1 17/8/8 20/7/7
f 2/4/4 23/9/9 16/5/5
f 3/10/10 25/11/11 15/12/12
f 4/13/13 27/14/14 19/15/15
f 5/16/16 29/17/17 21/18/18
f 6/19/19 31/20/20 22/21/21
f 2/22/4 26/23/22 23/24/9
f 3/10/10 28/25/23 25/11/11
f 4/13/13 30/26/24 27/14/14
f 5/16/16 32/27/25 29/17/17
f 6/19/19 24/28/26 31/20/20
f 7/29/27 38/30/28 33/31/29
f 8/32/30 40/33/31 34/34/32
f 9/35/33 41/36/34 35/37/35
f 10/38/36 42/39/37 36/40/38
f 11/41/39 39/42/40 37/43/41
f 39/44/40 12/45/42 42/46/37
f 39/42/40 42/39/37 37/43/41
f 37/43/41 42/39/37 10/38/36
f 42/46/37 12/45/42 41/36/34
f 42/46/37 41/36/34 36/47/38
f 36/47/38 41/36/34 9/35/33
f 41/36/34 12/45/42 40/33/31
f 41/36/34 40/33/31 35/37/35
f 35/37/35 40/33/31 8/32/30
f 40/33/31 12/45/42 38/48/28
f 40/33/31 38/48/28 34/34/32
f 34/49/32 38/30/28 7/29/27
f 38/48/28 12/45/42 39/44/40
f 38/30/28 39/50/40 33/31/29
f 33/31/29 39/50/40 11/51/39
f 24/28/26 11/41/39 37/43/41
f 24/28/26 37/43/41 31/20/20
f 31/20/20 37/43/41 10/38/36
f 32/52/25 10/38/36 36/40/38
f 32/27/25 36/53/38 29/17/17
f 29/17/17 36/53/38 9/54/33
f 30/55/24 9/35/33 35/37/35
f 30/26/24 35/56/35 27/14/14
f 27/14/14 35/56/35 8/57/30
f 28/25/23 8/57/30 34/58/32
f 28/25/23 34/58/32 25/11/11
f 25/59/11 34/49/32 7/29/27
f 26/23/22 7/29/27 33/31/29
f 26/23/22 33/31/29 23/24/9
f 23/24/9 33/31/29 11/51/39
f 31/20/20 10/38/36 32/52/25
f 31/20/20 32/52/25 22/21/21
f 22/60/21 32/27/25 5/16/16
f 29/17/17 9/54/33 30/61/24
f 29/17/17 30/61/24 21/18/18
f 21/18/18 30/61/24 4/62/13
f 27/14/14 8/57/30 28/25/23
f 27/14/14 28/25/23 19/15/15
f 19/15/15 28/25/23 3/10/10
f 25/59/11 7/29/27 26/23/22
f 25/59/11 26/23/22 15/63/12
f 15/63/12 26/23/22 2/22/4
f 23/64/9 11/41/39 24/28/26
f 23/64/9 24/28/26 16/65/5
f 16/65/5 24/28/26 6/19/19
f 17/8/8 6/66/19 22/67/21
f 17/8/8 22/67/21 20/7/7
f 20/68/7 22/60/21 5/16/16
f 20/68/7 5/16/16 21/18/18
f 20/68/7 21/18/18 18/69/6
f 18/69/6 21/18/18 4/62/13
f 18/70/6 4/13/13 19/15/15
f 18/70/6 19/15/15 13/71/2
f 13/71/2 19/15/15 3/10/10
f 16/5/5 6/66/19 17/8/8
f 16/5/5 17/8/8 14/3/3
f 14/3/3 17/8/8 1/1/1
f 13/71/2 3/10/10 15/12/12
f 13/2/2 15/72/12 14/3/3
f 14/3/3 15/72/12 2/4/4
