# Blender v2.81 (sub 16) OBJ File: 'section2.blend'
# www.blender.org
mtllib control_panel01.mtl
o Cube.007_Cube.008
v -18.218687 -0.030939 -11.452383
v -18.218687 1.220170 -11.452383
v -18.218687 -0.030939 -12.703492
v -17.869297 1.220170 -13.052883
v -16.967579 -0.030939 -11.452383
v -16.967579 1.220170 -11.452383
v -16.967579 -0.030939 -12.703492
v -17.316969 1.220170 -13.052883
v -17.869297 1.220170 -13.754887
v -18.218687 -0.030939 -14.104278
v -16.967579 -0.030939 -14.104278
v -17.316969 1.220170 -13.754887
v -18.218687 1.674616 -11.452383
v -18.218687 1.674616 -12.703492
v -17.350302 1.674616 -12.703492
v -16.967579 1.291893 -12.703492
v -16.967579 1.291893 -11.452383
v -17.350302 1.674616 -11.452383
v -18.218687 1.220170 -12.703492
v -16.967579 1.220170 -12.703492
v -18.218687 1.220170 -14.104278
v -16.967579 1.220170 -14.104278
v -17.869297 1.314838 -13.052883
v -17.316969 1.314838 -13.052883
v -17.869297 1.314838 -13.754887
v -17.316969 1.314838 -13.754887
vt 0.083371 0.269017
vt 0.041677 0.269176
vt 0.041370 0.223866
vt 0.083064 0.223707
vt 0.068621 0.142711
vt 0.068330 0.159613
vt 0.044312 0.158953
vt 0.044602 0.142052
vt 0.090073 0.143301
vt 0.089782 0.160203
vt 0.026952 0.331002
vt 0.026644 0.285692
vt 0.068338 0.285533
vt 0.068645 0.330843
vt 0.605140 0.304187
vt 0.855140 0.304187
vt 0.855140 0.575872
vt 0.605140 0.575872
vt 0.224630 0.763235
vt 0.068044 0.763235
vt 0.068044 0.753480
vt 0.115945 0.701424
vt 0.224630 0.701424
vt 0.043929 0.220962
vt 0.043622 0.175652
vt 0.085316 0.175492
vt 0.085623 0.220803
vt 0.605140 0.000000
vt 0.855140 0.000000
vt 0.611206 0.634379
vt 0.611206 0.786822
vt 0.592289 0.786822
vt 0.592289 0.634379
vt 0.041026 0.173135
vt 0.082720 0.172976
vt 0.590809 0.575872
vt 0.590809 0.304187
vt 0.605140 0.304187
vt 0.605140 0.575872
vt 0.124922 0.531257
vt 0.124922 0.701424
vt 0.068044 0.701424
vt 0.068044 0.531257
vt 0.585702 0.701424
vt 0.694386 0.701424
vt 0.694386 0.871592
vt 0.585702 0.871592
vt 0.537801 0.871592
vt 0.537801 0.701424
vt 0.603655 0.510899
vt 0.603655 0.340731
vt 0.660532 0.340731
vt 0.660532 0.458843
vt 0.612631 0.510899
vt 0.051017 0.205764
vt 0.075032 0.205618
vt 0.090402 0.222035
vt 0.036003 0.222366
vt 0.074674 0.172447
vt 0.050658 0.172593
vt 0.035288 0.156176
vt 0.089687 0.155845
vt 0.535912 0.733567
vt 0.646279 0.733567
vt 0.646279 0.886010
vt 0.535912 0.886010
vt 0.646279 0.853508
vt 0.646279 0.733567
vt 0.665196 0.733567
vt 0.665196 0.853508
vt 0.592289 0.634379
vt 0.592289 0.786822
vt 0.573372 0.786822
vt 0.573372 0.634379
vt 0.573372 0.906763
vt 0.573372 0.786822
vt 0.592289 0.786822
vt 0.592289 0.906763
vn -1.0000 0.0000 0.0000
vn 1.0000 0.0000 0.0000
vn 0.0000 0.0000 1.0000
vn 0.0000 -1.0000 0.0000
vn 0.0000 0.0000 -1.0000
vn 0.0000 1.0000 0.0000
vn 0.7071 0.7071 0.0000
g Cube.007_Cube.008_metal01
usemtl metal01
s off
f 1/1/1 2/2/1 19/3/1 3/4/1
f 20/5/2 7/6/2 11/7/2 22/8/2
f 7/6/2 20/5/2 6/9/2 5/10/2
f 5/11/3 6/12/3 2/13/3 1/14/3
f 3/15/4 7/16/4 5/17/4 1/18/4
f 2/19/3 6/20/3 17/21/3 18/22/3 13/23/3
f 10/24/5 21/25/5 22/26/5 11/27/5
f 7/16/4 3/15/4 10/28/4 11/29/4
f 8/30/2 12/31/2 26/32/2 24/33/2
f 3/4/1 19/3/1 21/34/1 10/35/1
f 6/36/2 20/37/2 16/38/2 17/39/2
f 19/40/1 2/41/1 13/42/1 14/43/1
f 15/44/6 14/45/6 13/46/6 18/47/6
f 15/44/7 18/47/7 17/48/7 16/49/7
f 20/50/5 19/51/5 14/52/5 15/53/5 16/54/5
f 8/55/6 4/56/6 19/57/6 20/58/6
f 9/59/6 12/60/6 22/61/6 21/62/6
f 12/60/6 8/55/6 20/58/6 22/61/6
f 4/56/6 9/59/6 21/62/6 19/57/6
f 23/63/6 24/64/6 26/65/6 25/66/6
f 4/67/3 8/68/3 24/69/3 23/70/3
f 9/71/1 4/72/1 23/73/1 25/74/1
f 12/75/5 9/76/5 25/77/5 26/78/5
