# Blender v2.81 (sub 16) OBJ File: 'section2.blend'
# www.blender.org
mtllib door01.mtl
o Cube.005_Cube.006
v -0.980145 2.418994 1.277124
v -0.980145 -0.016631 1.277124
v 0.980145 -0.016631 1.277124
v 0.980145 2.418994 1.277124
v -0.980145 2.418994 1.399833
v -0.980145 -0.016631 1.399833
v 0.980145 -0.016631 1.399833
v 0.980145 2.418994 1.399833
vt 0.972521 0.930129
vt 0.678995 0.931108
vt 0.677944 0.783180
vt 0.971470 0.782202
vt 0.970419 0.634274
vt 0.971470 0.782202
vt 0.677944 0.783180
vt 0.676893 0.635253
vt 0.961269 0.707661
vt 0.952550 0.707661
vt 0.952550 0.577983
vt 0.961269 0.577983
vt 0.969989 0.707661
vt 0.961269 0.707661
vt 0.961269 0.577983
vt 0.969989 0.577983
vt 0.978708 0.786723
vt 0.969989 0.786723
vt 0.969989 0.682353
vt 0.978708 0.682353
vt 0.969989 0.577983
vt 0.978708 0.577983
vt 0.978708 0.682353
vt 0.969989 0.682353
vn 0.0000 0.0000 -1.0000
vn 0.0000 0.0000 1.0000
vn -1.0000 0.0000 0.0000
vn 1.0000 0.0000 0.0000
vn 0.0000 -1.0000 0.0000
vn 0.0000 1.0000 0.0000
g Cube.005_Cube.006_Material.002
usemtl Material.002
s off
f 2/1/1 1/2/1 4/3/1 3/4/1
f 6/5/2 7/6/2 8/7/2 5/8/2
f 2/9/3 6/10/3 5/11/3 1/12/3
f 4/13/4 8/14/4 7/15/4 3/16/4
f 3/17/5 7/18/5 6/19/5 2/20/5
f 1/21/6 5/22/6 8/23/6 4/24/6
