# Blender v2.81 (sub 16) OBJ File: 'section2.blend'
# www.blender.org
mtllib elevator.mtl
o Cube.016
v -1.990566 -0.782227 -18.221304
v -1.612877 0.150486 -18.598993
v -1.990566 -0.782227 -22.202436
v -1.612877 0.150486 -21.824747
v 1.990566 -0.782227 -18.221304
v 1.612877 0.150486 -18.598993
v 1.990566 -0.782227 -22.202436
v 1.612877 0.150486 -21.824747
v -1.990566 0.150486 -18.221304
v -1.990566 0.150486 -22.202436
v 1.990566 0.150486 -22.202436
v 1.990566 0.150486 -18.221304
v -1.990566 3.719698 -18.221304
v -1.990566 3.719698 -22.202436
v 1.990566 3.719698 -22.202436
v 1.990566 3.719698 -18.221304
v -1.612877 3.719698 -18.598993
v -1.612877 3.719698 -21.824747
v 1.612877 3.719698 -21.824747
v 1.612877 3.719698 -18.598993
v -0.159298 4.243970 -20.052572
v -0.159298 4.243970 -20.371168
v 0.159298 4.243970 -20.052572
v 0.159298 4.243970 -20.371168
v -2.386513 3.740927 -17.825357
v -2.386513 3.740927 -22.598383
v 2.386513 3.740927 -22.598383
v 2.386513 3.740927 -17.825357
v -1.612877 4.243970 -18.598993
v -1.612877 4.243970 -21.824747
v 1.612877 4.243970 -21.824747
v 1.612877 4.243970 -18.598993
v -0.159298 39.876282 -20.052572
v -0.159298 39.876282 -20.371168
v 0.159298 39.876282 -20.371168
v 0.159298 39.876282 -20.052572
vt -0.187743 0.047560
vt -0.187743 0.107080
vt -0.636925 0.107080
vt -0.636925 0.047560
vt 0.843009 -0.349638
vt 0.843009 -0.409158
vt 1.478248 -0.409158
vt 1.478248 -0.349638
vt 0.081413 -0.277640
vt -0.067413 -0.277640
vt -0.067413 -0.457283
vt 0.081413 -0.457283
vt -0.067413 -0.636925
vt 0.081413 -0.636925
vt 0.843009 -0.095585
vt 0.843009 -0.349638
vt 1.478248 -0.349638
vt 1.478248 -0.095585
vt 0.141678 -0.003649
vt 0.141678 0.202200
vt 0.081413 0.226302
vt 0.081413 -0.027751
vt 0.903274 0.134366
vt 1.417983 0.134366
vt 1.478248 0.158468
vt 0.843009 0.158468
vt 1.417983 -0.071483
vt 1.478248 -0.095585
vt 0.903274 -0.071483
vt 0.843009 -0.095585
vt 1.514195 -0.636925
vt 1.514195 1.636925
vt 1.478248 1.636925
vt 1.478248 -0.636925
vt 0.843008 -0.332338
vt 0.843008 -0.027751
vt 0.081413 -0.027751
vt 0.081413 -0.332338
vt 0.719565 -0.587556
vt 0.843008 -0.636925
vt 0.719565 -0.381707
vt 0.204856 -0.381707
vt 0.081413 -0.636925
vt 0.204856 -0.587556
vt 0.436793 -0.474466
vt 0.436793 -0.494797
vt 0.487629 -0.474466
vt 0.487629 -0.494797
vt -0.016577 -0.257309
vt -0.067413 -0.257309
vt -0.067413 -0.277640
vt -0.016577 -0.277640
vt 1.550141 1.636925
vt 1.550142 -0.636925
vt 1.600978 -0.636925
vt 1.600977 1.636925
vt 1.550141 -0.636925
vt 1.550141 1.636925
vt 1.636924 -0.636925
vt 1.636925 1.636925
vt 1.600979 1.636925
vt 1.600978 -0.636925
vt 0.684778 0.425345
vt 0.684779 0.619708
vt 0.198790 0.619708
vt 0.198790 0.425345
vt 0.280291 0.697408
vt 0.280291 0.424630
vt 0.584190 0.424630
vt 0.584190 0.697407
vt 0.754491 0.646742
vt 0.119252 0.646742
vt 0.119252 0.418975
vt 0.754491 0.418975
vt 0.744742 0.465631
vt 0.744742 0.499717
vt 0.175229 0.499717
vt 0.175229 0.465631
vt 0.744742 0.645274
vt 0.175229 0.645274
vt 0.280291 0.360754
vt 0.584190 0.360753
vt 0.722642 0.441268
vt 0.722642 0.620911
vt 0.153130 0.620911
vt 0.153130 0.441268
vt 0.800541 0.470934
vt 0.800541 0.642190
vt 0.130479 0.642190
vt 0.130479 0.470934
vt 0.183517 0.415569
vt 0.632699 0.415569
vt 0.632699 0.643336
vt 0.183517 0.643336
vn -1.0000 0.0000 0.0000
vn 0.0000 0.0000 -1.0000
vn 1.0000 0.0000 0.0000
vn 0.0000 0.0000 1.0000
vn 0.0000 -1.0000 0.0000
vn 0.0000 1.0000 0.0000
vn 0.5451 0.8384 0.0000
vn -0.5451 0.8384 0.0000
vn 0.0000 0.8384 0.5451
vn 0.0000 0.8384 -0.5451
vn 0.7071 0.0000 0.7071
vn -0.7071 0.0000 0.7071
g Cube.016_Cube.016_metal06
usemtl metal06
s off
f 1/1/1 9/2/1 10/3/1 3/4/1
f 3/5/2 10/6/2 11/7/2 7/8/2
f 7/9/3 11/10/3 12/11/3 5/12/3
f 5/12/4 12/11/4 9/13/4 1/14/4
f 3/15/5 7/16/5 5/17/5 1/18/5
f 6/19/6 2/20/6 9/21/6 12/22/6
f 17/23/6 18/24/6 14/25/6 13/26/6
f 18/24/6 19/27/6 15/28/6 14/25/6
f 19/27/6 20/29/6 16/30/6 15/28/6
f 23/31/4 36/32/4 33/33/4 21/34/4
f 27/35/5 28/36/5 25/37/5 26/38/5
f 32/39/7 28/40/7 27/35/7 31/41/7
f 30/42/8 26/38/8 25/43/8 29/44/8
f 29/44/9 25/43/9 28/40/9 32/39/9
f 31/41/10 27/35/10 26/38/10 30/42/10
f 22/45/6 30/42/6 29/44/6 21/46/6
f 24/47/6 31/41/6 30/42/6 22/45/6
f 23/48/6 32/39/6 31/41/6 24/47/6
f 21/46/6 29/44/6 32/39/6 23/48/6
f 35/49/6 34/50/6 33/51/6 36/52/6
f 22/53/2 34/54/2 35/55/2 24/56/2
f 24/57/3 35/58/3 36/32/3 23/31/3
f 21/59/1 33/60/1 34/61/1 22/62/1
g Cube.016_Cube.016_metal_grate
usemtl metal_grate
f 8/63/6 4/64/6 2/65/6 6/66/6
f 8/67/1 6/68/1 20/69/1 19/70/1
f 11/71/2 10/72/2 14/73/2 15/74/2
f 9/75/11 2/76/11 17/77/11 13/78/11
f 2/76/3 4/79/3 18/80/3 17/77/3
f 6/68/12 12/81/12 16/82/12 20/69/12
f 12/83/3 11/84/3 15/85/3 16/86/3
f 4/87/4 8/88/4 19/89/4 18/90/4
f 10/91/1 9/92/1 13/93/1 14/94/1
