# Blender v2.81 (sub 16) OBJ File: 'section2.blend'
# www.blender.org
mtllib elevator_door.mtl
o Cube.017
v -1.612877 0.150486 -18.598993
v 1.612877 0.150486 -18.598993
v -1.990566 0.150486 -18.221304
v 1.990566 0.150486 -18.221304
v 1.990566 2.351026 -18.221304
v -1.990566 2.351026 -18.221304
v 1.612877 2.351026 -18.598993
v -1.612877 2.351026 -18.598993
vt 0.620330 0.538536
vt 0.667915 0.502872
vt 0.166339 0.502872
vt 0.213924 0.538536
vt 0.620330 0.538536
vt 0.213924 0.538536
vt 0.166339 0.502872
vt 0.667915 0.502872
vt 0.667915 0.416810
vt 0.620330 0.416810
vt 0.620330 0.624598
vt 0.667915 0.624598
vt 0.213924 0.416810
vt 0.213924 0.624598
vt 0.166339 0.416810
vt 0.166339 0.624598
vn 0.0000 -1.0000 -0.0000
vn 0.0000 1.0000 0.0000
vn 0.7071 0.0000 -0.7071
vn 0.0000 0.0000 -1.0000
vn -0.7071 0.0000 -0.7071
vn 0.0000 0.0000 1.0000
g Cube.017_Cube.017_metal_grate
usemtl metal_grate
s off
f 2/1/1 4/2/1 3/3/1 1/4/1
f 7/5/2 8/6/2 6/7/2 5/8/2
f 4/9/3 2/10/3 7/11/3 5/12/3
f 2/10/4 1/13/4 8/14/4 7/11/4
f 1/13/5 3/15/5 6/16/5 8/14/5
f 3/15/6 4/9/6 5/12/6 6/16/6
