# Blender v2.81 (sub 16) OBJ File: 'section2.blend'
# www.blender.org
mtllib indoor_house_door.mtl
o Cube.002_Cube.003
v -1.490531 -0.590907 3.959718
v -1.490531 5.154046 3.959718
v -1.490531 -0.590907 1.407514
v -1.490531 5.154046 1.407514
v 1.490531 -0.590907 3.959718
v 1.490531 5.154046 3.959718
v 1.490531 -0.590907 1.407514
v 1.490531 5.154046 1.407514
v -1.119847 -0.156334 3.478584
v -1.119847 2.558697 3.478584
v -0.980145 -0.016631 1.238889
v -0.980145 2.418994 1.238889
v 1.119847 -0.156334 3.478584
v 1.119847 2.558697 3.478584
v 0.980145 -0.016631 1.238889
v 0.980145 2.418994 1.238889
v -1.119847 2.558697 1.238889
v -1.119847 -0.156334 1.238889
v 1.119847 -0.156334 1.238889
v 1.119847 2.558697 1.238889
v -0.980145 2.418994 1.431520
v -0.980145 -0.016631 1.431520
v 0.980145 -0.016631 1.431520
v 0.980145 2.418994 1.431520
v 0.000000 -0.590907 1.407514
v 0.000000 5.154046 1.407514
v 0.000000 -0.590907 3.959718
v 0.000000 5.154046 3.959718
v -1.490531 -0.590907 5.270837
v -1.490531 5.154046 5.270837
v 1.490531 5.154046 5.270837
v 1.490531 -0.590907 5.270837
v 0.000000 -0.590907 5.270837
v 0.000000 5.154046 5.270837
v 6.110616 5.154046 3.959718
v 6.110616 -0.590907 3.959718
v 6.110616 5.154046 5.270837
v 6.110616 -0.590907 5.270837
v -3.600553 -0.590907 3.959718
v -3.600553 5.154046 3.959718
v -3.600553 -0.590907 5.270837
v -3.600553 5.154046 5.270837
v -1.490531 -0.590907 11.475162
v -1.490531 5.154046 11.475162
v 1.490531 5.154046 11.475162
v 1.490531 -0.590907 11.475162
v 0.000000 -0.590907 11.475162
v 0.000000 5.154046 11.475162
v 6.110616 5.154046 11.475162
v 6.110616 -0.590907 11.475162
v -3.600553 -0.590907 11.475162
v -3.600553 5.154046 11.475162
v -1.490531 2.230957 3.959718
v -1.490531 2.230957 1.407514
v 1.490531 2.230957 1.407514
v 1.490531 2.230957 3.959718
v 0.000000 2.401206 1.407514
v 6.110616 2.230957 3.959718
v 6.110616 2.230957 5.270837
v -3.600553 2.230957 3.959718
v -3.600553 2.230957 5.270837
v -1.490531 2.230957 11.475162
v 1.490531 2.230957 11.475162
v 0.000000 2.230957 11.475162
v 6.110616 2.230957 11.475162
v -3.600553 2.230957 11.475162
v 1.025161 5.154046 1.407514
v 1.025161 -0.590907 3.959718
v 1.025161 -0.590907 1.407514
v 1.025161 5.154046 3.959718
v 1.025161 -0.590907 5.270837
v 1.025161 5.154046 5.270837
v 1.025161 -0.590907 11.475162
v 1.025161 5.154046 11.475162
v 1.025161 2.230957 11.475162
v 1.025161 2.401206 1.407514
v -1.072549 -0.590907 1.407514
v -1.072549 5.154046 3.959718
v -1.072549 5.154046 1.407514
v -1.072549 -0.590907 3.959718
v -1.072549 5.154046 5.270837
v -1.072549 -0.590907 5.270837
v -1.072549 5.154046 11.475162
v -1.072549 -0.590907 11.475162
v -1.072549 2.230957 11.475162
v -1.072549 2.401206 1.407514
vt 0.853049 0.094010
vt 0.853049 0.000000
vt 0.965145 0.000000
vt 0.965145 0.094010
vt 0.867465 0.597088
vt 0.867465 0.508553
vt 0.887904 0.508553
vt 0.887904 0.602563
vt 1.000000 0.508553
vt 1.000000 0.602563
vt 0.629691 0.082082
vt 0.650130 0.082082
vt 0.650130 0.124249
vt 0.629691 0.124249
vt 0.629691 0.000000
vt 0.650130 0.000000
vt 0.111033 0.323788
vt 0.092674 0.323788
vt 0.092674 0.241706
vt 0.111033 0.241706
vt 0.541738 0.652813
vt 0.541738 0.565494
vt 0.640108 0.565494
vt 0.640108 0.652813
vt 0.869971 0.256796
vt 0.869971 0.319842
vt 0.861510 0.319842
vt 0.861510 0.256796
vt 0.344999 0.652813
vt 0.344999 0.565494
vt 0.443368 0.565494
vt 0.443369 0.652813
vt 0.640108 0.652813
vt 0.640108 0.565494
vt 0.738478 0.565494
vt 0.738478 0.652813
vt 0.098370 0.708143
vt 0.000000 0.708143
vt 0.000000 0.636111
vt 0.098370 0.636111
vt 0.951419 0.256796
vt 0.853049 0.256796
vt 0.853049 0.184765
vt 0.951419 0.184765
vt 0.449504 0.569987
vt 0.449504 0.648320
vt 0.443369 0.652813
vt 0.443369 0.565494
vt 0.535602 0.648320
vt 0.541738 0.652813
vt 0.535602 0.569987
vt 0.541738 0.565494
vt 0.098370 0.714444
vt 0.098370 0.636111
vt 0.184468 0.636111
vt 0.184468 0.714444
vt 0.755399 0.565494
vt 0.755399 0.643827
vt 0.746938 0.643827
vt 0.746938 0.565494
vt 0.746938 0.565494
vt 0.746938 0.643827
vt 0.738478 0.643827
vt 0.738478 0.565494
vt 0.853049 0.319842
vt 0.853049 0.256796
vt 0.861510 0.256796
vt 0.861510 0.319842
vt 0.203166 0.323788
vt 0.158140 0.323788
vt 0.158140 0.241706
vt 0.203166 0.241706
vt 0.537557 0.000000
vt 0.584665 0.000000
vt 0.584665 0.082082
vt 0.537557 0.082082
vt 0.158140 0.199539
vt 0.203166 0.199539
vt 0.775331 0.597088
vt 0.775331 0.508553
vt 0.822439 0.508553
vt 0.822439 0.597088
vt 0.092674 0.199539
vt 0.000000 0.199539
vt 0.000000 0.000000
vt 0.092674 0.000000
vt 0.111033 0.199539
vt 0.111033 0.000000
vt 0.584665 0.124249
vt 0.537557 0.124249
vt 0.223606 0.241706
vt 0.223606 0.199539
vt 0.426525 0.199539
vt 0.426525 0.241706
vt 0.628588 0.365955
vt 0.756973 0.365955
vt 0.756973 0.565494
vt 0.628588 0.565494
vt 0.628588 0.323788
vt 0.756973 0.323788
vt 0.959892 0.414543
vt 0.959892 0.508553
vt 0.756973 0.508553
vt 0.756973 0.414543
vt 0.223606 0.000000
vt 0.426525 0.000000
vt 0.853049 0.082082
vt 0.853049 0.124249
vt 0.380709 0.323788
vt 0.504649 0.323788
vt 0.504649 0.365955
vt 0.380709 0.365955
vt 0.519199 0.082082
vt 0.519199 0.124249
vt 0.426525 0.124249
vt 0.426525 0.082082
vt 0.000000 0.241706
vt 0.252324 0.656249
vt 0.252324 0.565494
vt 0.344999 0.565494
vt 0.344999 0.656249
vt 0.128385 0.405092
vt 0.000000 0.405092
vt 0.000000 0.391649
vt 0.128385 0.391649
vt 0.128385 0.472557
vt 0.000000 0.472557
vt 0.000000 0.439586
vt 0.128385 0.439586
vt 0.000000 0.323788
vt 0.128385 0.323788
vt 0.128385 0.487524
vt 0.252324 0.487524
vt 0.252324 0.636111
vt 0.128385 0.636111
vt 0.504649 0.565494
vt 0.380710 0.565494
vt 0.584665 0.323788
vt 0.537557 0.323788
vt 0.519199 0.323788
vt 0.426525 0.323788
vt 0.158140 0.000000
vt 0.203166 0.000000
vt 0.853049 0.323788
vt 0.650130 0.323788
vt 0.629691 0.323788
vt 0.252324 0.365955
vt 0.252324 0.565494
vt 0.000000 0.487524
vt 0.000000 0.636111
vt 0.252324 0.391649
vt 0.252324 0.323788
vt 0.252324 0.472557
vt 0.252324 0.439586
vt 0.252324 0.405092
vt 0.252324 0.750259
vt 0.344999 0.750259
vt 0.252324 0.323788
vt 0.959892 0.323788
vt 0.756973 0.323788
vt 0.504649 0.323788
vt 0.504649 0.365955
vt 0.504649 0.565494
vt 2.823454 0.696494
vt 2.823454 0.689249
vt 2.827001 0.689249
vt 2.827001 0.696494
vt 0.887905 0.693318
vt 1.000000 0.693318
vt 0.867465 0.693318
vt 0.853049 0.184765
vt 0.965145 0.184765
vt 2.830391 0.689249
vt 2.830391 0.696494
vt 0.223606 0.323788
vt 0.756973 0.693318
vt 0.756973 0.602563
vt 0.775331 0.693318
vt 0.756973 0.508553
vt 0.519199 0.000000
vn -1.0000 0.0000 0.0000
vn 0.0000 0.0000 -1.0000
vn 1.0000 0.0000 0.0000
vn 0.0000 -1.0000 0.0000
vn 0.0000 1.0000 0.0000
vn 0.0000 0.0000 1.0000
g Cube.002_Cube.003_rust
usemtl rust
s off
f 53/1/1 2/2/1 4/3/1 54/4/1
f 76/5/2 67/6/2 8/7/2 55/8/2
f 55/8/3 8/7/3 6/9/3 56/10/3
f 68/11/4 5/12/4 32/13/4 71/14/4
f 69/15/4 7/16/4 5/12/4 68/11/4
f 79/17/5 4/18/5 2/19/5 78/20/5
f 9/21/1 10/22/1 17/23/1 18/24/1
f 12/25/4 16/26/4 24/27/4 21/28/4
f 19/29/3 20/30/3 14/31/3 13/32/3
f 13/33/6 14/34/6 10/35/6 9/36/6
f 18/37/4 19/38/4 13/39/4 9/40/4
f 20/41/5 17/42/5 10/43/5 14/44/5
f 12/45/2 11/46/2 18/47/2 17/48/2
f 11/46/2 15/49/2 19/50/2 18/47/2
f 16/51/2 12/45/2 17/48/2 20/52/2
f 15/49/2 16/51/2 20/52/2 19/50/2
f 22/53/2 21/54/2 24/55/2 23/56/2
f 11/57/3 12/58/3 21/59/3 22/60/3
f 16/61/1 15/62/1 23/63/1 24/64/1
f 15/65/5 11/66/5 22/67/5 23/68/5
f 67/69/5 26/70/5 28/71/5 70/72/5
f 77/73/4 25/74/4 27/75/4 80/76/4
f 70/72/5 28/71/5 34/77/5 72/78/5
f 86/79/2 79/80/2 26/81/2 57/82/2
f 30/83/5 42/84/5 52/85/5 44/86/5
f 81/87/5 30/83/5 44/86/5 83/88/5
f 78/20/5 2/19/5 30/83/5 81/87/5
f 80/76/4 27/75/4 33/89/4 82/90/4
f 6/91/5 31/92/5 37/93/5 35/94/5
f 59/95/3 37/96/3 49/97/3 65/98/3
f 58/99/3 35/100/3 37/96/3 59/95/3
f 56/101/2 6/102/2 35/103/2 58/104/2
f 37/93/5 31/92/5 45/105/5 49/106/5
f 32/13/4 5/12/4 36/107/4 38/108/4
f 60/109/1 39/110/1 41/111/1 61/112/1
f 1/113/4 29/114/4 41/115/4 39/116/4
f 30/83/5 2/19/5 40/117/5 42/84/5
f 53/118/2 1/119/2 39/120/2 60/121/2
f 85/122/6 83/123/6 44/124/6 62/125/6
f 75/126/6 74/127/6 48/128/6 64/129/6
f 62/125/6 44/124/6 52/130/6 66/131/6
f 63/132/6 46/133/6 50/134/6 65/135/6
f 61/112/1 41/111/1 51/136/1 66/137/1
f 82/90/4 33/89/4 47/138/4 84/139/4
f 41/115/4 29/114/4 43/140/4 51/141/4
f 72/78/5 34/77/5 48/142/5 74/143/5
f 32/13/4 38/108/4 50/144/4 46/145/4
f 71/14/4 32/13/4 46/145/4 73/146/4
f 42/147/1 61/112/1 66/137/1 52/148/1
f 45/149/6 63/132/6 65/135/6 49/150/6
f 43/151/6 62/125/6 66/131/6 51/152/6
f 73/153/6 75/126/6 64/129/6 47/154/6
f 84/155/6 85/122/6 62/125/6 43/151/6
f 2/156/2 53/118/2 60/121/2 40/157/2
f 40/158/1 60/109/1 61/112/1 42/147/1
f 5/159/2 56/101/2 58/104/2 36/160/2
f 36/161/3 58/99/3 59/95/3 38/162/3
f 38/162/3 59/95/3 65/98/3 50/163/3
f 77/164/2 86/165/2 57/166/2 25/167/2
f 7/168/3 55/8/3 56/10/3 5/169/3
f 69/170/2 76/5/2 55/8/2 7/168/2
f 1/171/1 53/1/1 54/4/1 3/172/1
f 25/167/2 57/166/2 76/173/2 69/174/2
f 46/133/6 63/132/6 75/126/6 73/153/6
f 33/89/4 71/14/4 73/146/4 47/138/4
f 31/92/5 72/78/5 74/143/5 45/105/5
f 63/132/6 45/149/6 74/127/6 75/126/6
f 6/91/5 70/72/5 72/78/5 31/92/5
f 8/175/5 67/69/5 70/72/5 6/91/5
f 25/74/4 69/15/4 68/11/4 27/75/4
f 27/75/4 68/11/4 71/14/4 33/89/4
f 57/82/2 26/81/2 67/6/2 76/5/2
f 3/176/2 54/177/2 86/79/2 77/178/2
f 47/154/6 64/129/6 85/122/6 84/155/6
f 29/114/4 82/90/4 84/139/4 43/140/4
f 64/129/6 48/128/6 83/123/6 85/122/6
f 1/113/4 80/76/4 82/90/4 29/114/4
f 28/71/5 78/20/5 81/87/5 34/77/5
f 34/77/5 81/87/5 83/88/5 48/142/5
f 54/177/2 4/179/2 79/80/2 86/79/2
f 3/180/4 77/73/4 80/76/4 1/113/4
f 26/70/5 79/17/5 78/20/5 28/71/5
