# Blender v2.81 (sub 16) OBJ File: 'section2.blend'
# www.blender.org
mtllib ledge01.mtl
o Plane.001
v 1.121107 0.021982 -7.498649
v 5.479861 0.021982 -6.384197
v 1.121107 0.021982 -9.498649
v 6.116397 0.021982 -9.498649
v 1.396249 0.021982 -8.498649
v 6.116397 0.021982 -8.498649
v 1.396249 -1.015421 -8.498649
v 6.116397 -1.015421 -8.498649
v 1.121107 -0.677878 -7.498649
v 1.213979 -1.015421 -7.836192
v 6.116397 -1.015421 -7.836192
v 5.479861 -0.677878 -6.384197
v 6.116397 -0.677878 -9.498649
v 6.116397 -1.015421 -9.161105
v 1.213979 -1.015421 -9.161105
v 1.121107 -0.677878 -9.498649
v 8.026979 0.021982 -8.498649
v 7.146553 0.021982 -9.661715
v 8.395531 0.021982 -7.992622
v 8.026979 -1.015421 -8.498649
v 8.395531 -0.677878 -7.992622
v 8.026979 -1.015421 -7.836192
v 7.310128 -1.015421 -8.825790
v 6.711214 -0.677878 -9.661715
v 6.116397 0.021982 -2.916711
v 8.026979 0.021982 -2.916711
v 6.116397 -0.677878 -2.916711
v 8.026979 -0.677878 -2.916711
v 13.347583 0.021982 -7.498649
v 13.347583 -0.677878 -7.498649
v 13.347583 0.021982 -2.916711
v 13.347583 -0.677878 -2.916711
vt 0.081401 0.716371
vt 0.081401 0.469384
vt 0.012464 0.469384
vt 0.012464 0.730768
vt 0.150339 0.730768
vt 0.227167 0.502691
vt 0.932612 0.340399
vt 0.980551 0.339327
vt 0.982682 0.091005
vt 0.934743 0.092077
vt 1.008382 0.323140
vt 1.056629 0.323140
vt 1.056629 0.091005
vt 1.008382 0.091005
vt 0.545523 0.105089
vt 0.499883 0.095577
vt 0.499883 0.352052
vt 0.545523 0.352028
vt 0.591163 0.095530
vt 0.591163 0.352005
vt 0.081401 0.369411
vt 0.001222 0.415480
vt 0.466207 0.835097
vt 0.514454 0.835097
vt 0.537724 0.817167
vt 0.537724 0.781980
vt 0.466207 0.781980
vt 1.075347 0.592247
vt 1.075347 0.409094
vt 1.027101 0.409094
vt 1.027101 0.592247
vt 0.615233 0.091005
vt 0.692014 0.318997
vt 1.006291 0.344299
vt 1.008382 0.100594
vt 0.537724 0.747973
vt 0.514454 0.730645
vt 0.466207 0.730645
vt 0.930908 0.388958
vt 1.008382 0.409094
vt 0.979033 0.366244
vt 0.717511 0.786767
vt 0.715698 0.750348
vt 0.718592 0.730645
vt 0.674541 0.732783
vt 0.677230 0.786767
vt 0.545523 0.451982
vt 0.591163 0.451959
vt 0.116286 0.350126
vt 0.477442 0.352410
vt 0.466207 0.383534
vt 0.522984 0.414491
vt 0.581200 0.471591
vt 0.979154 0.786163
vt 0.979154 0.686536
vt 0.930908 0.686536
vt 0.930908 0.786163
vt 0.979154 0.409979
vt 0.979155 0.664189
vt 1.027101 0.663304
vt 1.027100 0.409094
vt 0.930908 0.452128
vt 0.930908 0.352174
vt 0.466207 0.469384
vt 0.466207 0.369411
vt 1.027154 0.896877
vt 1.027154 0.665139
vt 0.979154 0.664189
vt 0.979154 0.895927
vt 0.615233 0.730645
vt 0.930908 0.730481
vt 0.979154 0.409094
vt 0.930908 0.409094
vt 0.466207 0.091005
vt 0.150339 0.091005
vt 0.620538 0.784602
vt 0.674541 0.784602
vt 0.621382 0.730645
vt 0.537724 0.793710
vt 0.620538 0.793710
vt 0.579917 0.730645
vn 0.0000 1.0000 0.0000
vn 0.0000 0.0000 -1.0000
vn -0.2477 0.0000 0.9688
vn 0.0000 -1.0000 0.0000
vn -0.9642 0.0000 0.2653
vn -0.9836 0.0000 0.1806
vn -0.0407 -0.9402 0.3381
vn 0.0000 -0.7071 -0.7071
vn -0.9642 -0.0000 -0.2653
vn 0.6561 -0.4081 -0.6348
vn 0.8494 -0.1881 -0.4932
vn -0.1964 0.0611 -0.9786
vn 0.0498 -0.8545 -0.5170
vn 0.1606 -0.8613 0.4820
vn 0.0000 0.0000 1.0000
vn 0.0993 0.0000 -0.9951
vn 1.0000 0.0000 0.0000
vn 0.4152 0.0000 -0.9097
vn 0.7500 -0.3392 -0.5678
g Plane.001_Plane.001_Material.003
usemtl Material.003
s off
f 5/1/1 6/2/1 4/3/1 3/4/1
f 1/5/1 2/6/1 6/2/1 5/1/1
f 4/7/2 13/8/2 16/9/2 3/10/2
f 1/11/3 9/12/3 12/13/3 2/14/3
f 7/15/4 15/16/4 14/17/4 8/18/4
f 10/19/4 7/15/4 8/18/4 11/20/4
f 6/2/1 17/21/1 18/22/1 4/3/1
f 3/23/5 16/24/5 15/25/5 7/26/5 5/27/5
f 12/28/6 27/29/6 25/30/6 2/31/6
f 9/32/7 10/19/7 11/20/7 12/33/7
f 13/8/8 14/34/8 15/35/8 16/9/8
f 5/27/9 7/26/9 10/36/9 9/37/9 1/38/9
f 18/39/10 23/40/10 24/41/10
f 19/42/11 21/43/11 22/44/11 20/45/11 17/46/11
f 4/7/12 18/39/12 24/41/12 13/8/12
f 8/18/4 20/47/4 22/48/4 11/20/4
f 2/6/1 19/49/1 17/21/1 6/2/1
f 13/50/13 24/51/13 23/52/13 14/17/13
f 14/17/4 23/52/4 20/47/4 8/18/4
f 11/20/14 22/48/14 21/53/14 12/33/14
f 27/54/15 28/55/15 26/56/15 25/57/15
f 19/58/16 29/59/16 30/60/16 21/61/16
f 21/53/4 28/62/4 27/63/4 12/33/4
f 2/6/1 25/64/1 26/65/1 19/49/1
f 29/66/17 31/67/17 32/68/17 30/69/17
f 21/53/4 30/70/4 32/71/4 28/62/4
f 28/55/15 32/72/15 31/73/15 26/56/15
f 26/65/1 31/74/1 29/75/1 19/49/1
f 20/76/18 23/77/18 17/78/18
f 17/79/19 23/80/19 18/81/19
