# Blender v2.81 (sub 16) OBJ File: 'section2.blend'
# www.blender.org
mtllib ledge03.mtl
o Plane.002
v -10.414932 -0.000000 -13.238600
v -10.414932 -0.000000 -10.331607
v -1.101005 -0.000000 -9.772319
v -1.323788 -0.000000 -7.549533
v -1.101005 -0.426751 -9.772319
v -10.414932 -0.426751 -13.238600
v -10.414932 -0.426751 -10.331607
v -1.323788 -0.426751 -7.549533
v -10.414932 -0.000000 -11.785103
v -1.489141 -0.000000 -8.526509
v -10.414932 -0.426751 -11.785103
v -1.489141 -0.426751 -8.526509
v -2.896077 -0.000000 -9.980005
v -2.896077 -0.000000 -7.073013
v -2.896077 -0.426751 -9.980005
v -2.896077 -0.426751 -7.073013
v -3.222578 -0.426751 -8.526509
v -3.222577 -0.000000 -8.526509
vt 0.170202 0.593827
vt 0.000000 0.666577
vt 0.135660 0.740734
vt 0.252636 0.694992
vt 0.600486 0.146907
vt 0.682919 0.045741
vt 0.565944 0.000000
vt 0.430284 0.074157
vt 0.907045 0.681301
vt 0.860568 0.681301
vt 0.860568 0.750259
vt 0.907045 0.750259
vt 0.953523 0.115816
vt 0.907045 0.115816
vt 0.907045 0.666811
vt 0.953523 0.666811
vt 0.953523 0.106581
vt 1.000000 0.106581
vt 1.000000 0.000000
vt 0.953523 0.000000
vt 0.907045 0.060508
vt 0.860568 0.060508
vt 0.860568 0.121017
vt 0.907045 0.121017
vt 0.907045 0.000000
vt 0.860568 0.000000
vt 0.953523 0.188556
vt 1.000000 0.188556
vt 0.801741 0.181547
vt 0.860568 0.069112
vt 0.371458 0.559187
vt 0.430284 0.671622
vt 0.430284 0.000000
vt 0.244555 0.053695
vt 0.860567 0.740734
vt 0.674839 0.687039
vt 0.907045 0.000000
vt 0.489110 0.633344
vt 0.058826 0.107390
vn -0.0000 1.0000 -0.0000
vn 0.0000 -1.0000 0.0000
vn 0.2900 0.0000 0.9570
vn 0.3977 0.0000 -0.9175
vn 0.9547 0.0000 0.2975
vn -1.0000 0.0000 0.0000
vn 0.9860 0.0000 -0.1669
vn 0.1149 0.0000 -0.9934
vn -0.3977 0.0000 0.9175
g Plane.002_Plane.002_Material.003
usemtl Material.003
s off
f 18/1/1 14/2/1 4/3/1 10/4/1
f 17/5/2 12/6/2 8/7/2 16/8/2
f 14/9/3 16/10/3 8/11/3 4/12/3
f 13/13/4 15/14/4 6/15/4 1/16/4
f 10/17/5 12/18/5 5/19/5 3/20/5
f 9/21/6 11/22/6 7/23/6 2/24/6
f 1/25/6 6/26/6 11/22/6 9/21/6
f 4/27/7 8/28/7 12/18/7 10/17/7
f 15/29/2 5/30/2 12/6/2 17/5/2
f 13/31/1 18/1/1 10/4/1 3/32/1
f 1/33/1 9/34/1 18/1/1 13/31/1
f 6/35/2 15/29/2 17/5/2 11/36/2
f 3/20/8 5/37/8 15/14/8 13/13/8
f 2/24/9 7/23/9 16/10/9 14/9/9
f 11/36/2 17/5/2 16/8/2 7/38/2
f 9/34/1 2/39/1 14/2/1 18/1/1
