# Blender v2.81 (sub 16) OBJ File: 'section2.blend'
# www.blender.org
mtllib lever.mtl
o Cube.024
v -0.034913 -0.034912 0.034912
v -0.015156 0.034912 0.015156
v -0.034913 -0.034912 -0.034912
v -0.015156 0.034912 -0.015155
v 0.034912 -0.034912 0.034912
v 0.015155 0.034912 0.015156
v 0.034912 -0.034912 -0.034912
v 0.015155 0.034912 -0.015155
v -0.034913 0.034912 0.034912
v -0.034913 0.034912 -0.034912
v 0.034912 0.034912 -0.034912
v 0.034912 0.034912 0.034912
v -0.015156 0.208864 0.015156
v -0.015156 0.208864 -0.015155
v 0.015155 0.208864 -0.015155
v 0.015155 0.208864 0.015156
v -0.030019 0.223650 0.030019
v -0.030019 0.223650 -0.030019
v 0.030019 0.223650 -0.030019
v 0.030019 0.223650 0.030019
v -0.030019 0.256386 0.030019
v -0.030019 0.256386 -0.030019
v 0.030019 0.256386 -0.030019
v 0.030019 0.256386 0.030019
v -0.020751 0.270010 0.020751
v -0.020751 0.270010 -0.020751
v 0.020751 0.270010 -0.020751
v 0.020751 0.270010 0.020751
vt 0.083682 0.142706
vt 0.073939 0.142706
vt 0.073939 0.132912
vt 0.083682 0.132912
vt 0.065479 0.123117
vt 0.065479 0.131216
vt 0.055735 0.131216
vt 0.055735 0.123117
vt 0.083682 0.132912
vt 0.073939 0.132912
vt 0.073939 0.123117
vt 0.083682 0.123117
vt 0.065479 0.147518
vt 0.073535 0.147518
vt 0.073535 0.157312
vt 0.065479 0.157312
vt 0.475862 0.512078
vt 0.730578 0.512078
vt 0.730578 0.768118
vt 0.475862 0.768118
vt 0.502753 0.376228
vt 0.490895 0.374566
vt 0.496589 0.170031
vt 0.508447 0.171693
vt 0.062722 0.135166
vt 0.062722 0.132774
vt 0.065479 0.136725
vt 0.058492 0.132774
vt 0.058492 0.135166
vt 0.055735 0.136725
vt 0.500787 0.767737
vt 0.533092 0.767737
vt 0.548934 0.783661
vt 0.484945 0.783661
vt 0.490895 0.374566
vt 0.479036 0.372905
vt 0.484731 0.168370
vt 0.496589 0.170031
vt 0.502782 0.389233
vt 0.479869 0.388760
vt 0.488836 0.144382
vt 0.511749 0.144855
vt 0.492713 0.101909
vt 0.517072 0.102489
vt 0.505097 0.385305
vt 0.480738 0.384725
vt 0.409905 0.722767
vt 0.409905 0.787088
vt 0.375015 0.787088
vt 0.375015 0.722767
vt 0.533092 0.735264
vt 0.500787 0.735264
vt 0.484945 0.719340
vt 0.548934 0.719340
vt 0.563455 0.720671
vt 0.563455 0.784991
vt 0.548934 0.775062
vt 0.548934 0.730600
vt 0.598344 0.720670
vt 0.598344 0.784991
vt 0.581239 0.559246
vt 0.581239 0.494926
vt 0.610086 0.494926
vt 0.610086 0.559246
vt 0.612922 0.720670
vt 0.548934 0.720670
vt 0.548934 0.691673
vt 0.612922 0.691673
vt 0.603044 0.674020
vt 0.558812 0.674020
vt 0.558812 0.649011
vt 0.603044 0.649011
vt 0.627649 0.504855
vt 0.627649 0.549317
vt 0.360494 0.777158
vt 0.360494 0.732696
vn -0.5773 -0.5773 0.5773
vn -0.5773 0.5773 0.5773
vn -0.5773 0.5773 -0.5773
vn -0.5773 -0.5773 -0.5773
vn 0.5773 0.5773 -0.5773
vn 0.5773 -0.5773 -0.5773
vn 0.5773 0.5773 0.5773
vn 0.5773 -0.5773 0.5773
vn 0.3015 0.9045 0.3015
vn 0.3015 0.9045 -0.3015
vn 0.5781 -0.5759 -0.5781
vn 0.5781 -0.5759 0.5781
vn -0.3015 0.9045 0.3015
vn -0.3015 0.9045 -0.3015
vn -0.5781 -0.5759 0.5781
vn 0.6504 -0.3922 0.6504
vn -0.6504 -0.3922 0.6504
vn -0.5781 -0.5759 -0.5781
vn 0.6504 -0.3922 -0.6504
vn 0.6686 0.3254 -0.6686
vn 0.6686 0.3254 0.6686
vn -0.6504 -0.3922 -0.6504
vn -0.6686 0.3254 -0.6686
vn -0.6686 0.3254 0.6686
vn -0.3736 0.8490 0.3736
vn -0.3736 0.8490 -0.3736
vn 0.3736 0.8490 -0.3736
vn 0.3736 0.8490 0.3736
g Cube.024_Cube.024_button
usemtl button
s 1
f 1/1/1 9/2/2 10/3/3 3/4/4
f 3/5/4 10/6/3 11/7/5 7/8/6
f 7/9/6 11/10/5 12/11/7 5/12/8
f 5/13/8 12/14/7 9/15/2 1/16/1
f 3/17/4 7/18/6 5/19/8 1/20/1
f 6/21/9 8/22/10 15/23/11 16/24/12
f 2/25/13 4/26/14 10/6/3 9/27/2
f 4/26/14 8/28/10 11/7/5 10/6/3
f 8/28/10 6/29/9 12/30/7 11/7/5
f 6/29/9 2/25/13 9/27/2 12/30/7
f 13/31/15 16/32/12 20/33/16 17/34/17
f 4/35/14 2/36/13 13/37/15 14/38/18
f 2/39/13 6/40/9 16/41/12 13/42/15
f 8/43/10 4/44/14 14/45/18 15/46/11
f 20/47/16 19/48/19 23/49/20 24/50/21
f 15/51/11 14/52/18 18/53/22 19/54/19
f 16/32/12 15/51/11 19/54/19 20/33/16
f 14/52/18 13/31/15 17/34/17 18/53/22
f 22/55/23 21/56/24 25/57/25 26/58/26
f 18/59/22 17/60/17 21/56/24 22/55/23
f 17/61/17 20/62/16 24/63/21 21/64/24
f 19/65/19 18/66/22 22/67/23 23/68/20
f 27/69/27 26/70/26 25/71/25 28/72/28
f 21/64/24 24/63/21 28/73/28 25/74/25
f 23/68/20 22/67/23 26/70/26 27/69/27
f 24/50/21 23/49/20 27/75/27 28/76/28
