# Blender v2.81 (sub 16) OBJ File: 'section2.blend'
# www.blender.org
mtllib lever_holder.mtl
o Cube.023
v -0.222581 -0.065750 0.712972
v -0.138053 0.065750 0.628443
v -0.222581 -0.065750 0.175212
v -0.138053 0.065750 0.259740
v 0.185919 -0.065750 0.712972
v 0.101390 0.065750 0.628443
v 0.185919 -0.065750 0.175212
v 0.101390 0.065750 0.259740
v -0.222581 0.065750 0.712972
v -0.222581 0.065750 0.175212
v 0.185919 0.065750 0.175212
v 0.185919 0.065750 0.712972
v -0.068237 0.133651 0.520938
v -0.068237 0.133651 0.367246
v 0.031574 0.133651 0.367246
v 0.031574 0.133651 0.520938
vt 0.156202 0.228062
vt 0.224279 0.228062
vt 0.224279 0.296139
vt 0.156202 0.296139
vt 0.224279 0.364216
vt 0.156202 0.364216
vt 0.224279 0.432293
vt 0.156202 0.432293
vt 0.224279 0.500370
vt 0.156202 0.500370
vt 0.088125 0.364216
vt 0.088125 0.432293
vt 0.278269 0.421592
vt 0.238366 0.421592
vt 0.238366 0.421592
vt 0.278269 0.421592
vt 0.278269 0.374917
vt 0.292356 0.364216
vt 0.292356 0.432293
vt 0.238366 0.374917
vt 0.238366 0.374917
vt 0.278269 0.374917
vn -0.5773 -0.5773 0.5773
vn -0.5773 0.5773 0.5773
vn -0.5773 0.5773 -0.5773
vn -0.5773 -0.5773 -0.5773
vn 0.5773 0.5773 -0.5773
vn 0.5773 -0.5773 -0.5773
vn 0.5773 0.5773 0.5773
vn 0.5773 -0.5773 0.5773
vn -0.0829 0.9923 0.0922
vn 0.0829 0.9923 0.0922
vn 0.3087 0.9291 0.2037
vn -0.3087 0.9291 0.2037
vn -0.0829 0.9923 -0.0922
vn 0.0829 0.9923 -0.0922
vn 0.3087 0.9291 -0.2037
vn -0.3087 0.9291 -0.2037
g Cube.023_Cube.023_button
usemtl button
s 1
f 1/1/1 9/2/2 10/3/3 3/4/4
f 3/4/4 10/3/3 11/5/5 7/6/6
f 7/6/6 11/5/5 12/7/7 5/8/8
f 5/8/8 12/7/7 9/9/2 1/10/1
f 3/11/4 7/6/6 5/8/8 1/12/1
f 2/13/9 6/14/10 16/15/11 13/16/12
f 2/13/9 4/17/13 10/18/3 9/19/2
f 4/17/13 8/20/14 11/5/5 10/18/3
f 8/20/14 6/14/10 12/7/7 11/5/5
f 6/14/10 2/13/9 9/19/2 12/7/7
f 15/21/15 14/22/16 13/16/12 16/15/11
f 8/20/14 4/17/13 14/22/16 15/21/15
f 6/14/10 8/20/14 15/21/15 16/15/11
f 4/17/13 2/13/9 13/16/12 14/22/16
