# Blender v2.81 (sub 16) OBJ File: 'section2.blend'
# www.blender.org
mtllib machine_room.mtl
o Cube.006_Cube.007
v -19.305256 -0.598508 -9.107914
v -18.903875 0.078080 -9.509295
v -19.305256 -0.598508 -18.107140
v -18.903875 0.078080 -17.705759
v -8.874990 -0.598508 -9.107914
v -9.276371 0.078080 -9.509295
v -8.874990 -0.598508 -18.107140
v -9.276371 0.078080 -17.705759
v -19.305256 0.078080 -9.107914
v -19.305256 0.078080 -18.107140
v -8.874990 0.078080 -18.107140
v -8.874990 0.078080 -9.107914
v -19.305256 5.383598 -9.107914
v -19.305256 5.383598 -18.107140
v -8.874990 5.383598 -18.107140
v -8.874990 5.383598 -9.107914
v -18.903875 5.383598 -9.509295
v -18.903875 5.383598 -17.705759
v -9.276371 5.383598 -17.705759
v -9.276371 5.383598 -9.509295
v -19.421402 6.223421 -9.007702
v -19.421402 6.223421 -18.207352
v -8.758843 6.223421 -9.007702
v -8.758843 6.223421 -18.207352
v -19.421402 5.102782 -18.207352
v -19.421402 5.102782 -9.007702
v -8.758843 5.102782 -18.207352
v -8.758843 5.102782 -9.007702
v -19.305256 -0.598508 -9.759207
v -19.305256 0.078080 -9.759207
v -8.874990 -0.598508 -9.759207
v -8.874990 0.078080 -9.759207
v -18.903875 0.078080 -10.102489
v -9.276371 0.078080 -10.102489
v -19.305256 5.383598 -9.759207
v -8.874990 5.383598 -9.759207
v -18.903875 5.383598 -10.102489
v -9.276371 5.383598 -10.102489
v -19.305256 0.078080 -12.652906
v -8.874990 -0.598508 -12.652906
v -18.903875 0.078080 -12.738062
v -19.305256 5.383598 -12.652906
v -18.903875 5.383598 -12.738062
v -19.305256 -0.598508 -12.652906
v -8.874990 0.078080 -12.652906
v -9.276371 0.078080 -12.738062
v -8.874990 5.383598 -12.652906
v -9.276371 5.383598 -12.738062
v -9.276371 3.109586 -9.509295
v -18.903875 3.109586 -9.509295
v -8.874990 3.109586 -9.107914
v -8.874990 3.109586 -18.107140
v -9.276371 3.109586 -17.705759
v -18.903875 3.109586 -17.705759
v -19.305256 3.109586 -9.107914
v -19.305256 3.109586 -18.107140
v -18.903875 3.109586 -10.102489
v -9.276371 3.109586 -10.102489
v -8.874990 3.109586 -9.759207
v -19.305256 3.109586 -9.759207
v -19.305256 3.109586 -12.652906
v -9.276371 3.109586 -12.738062
v -18.903875 3.109586 -12.738062
v -8.874990 3.109586 -12.652906
v -9.276371 3.109586 -13.139901
v -9.276371 5.383598 -13.139901
v -8.874990 5.383598 -12.796618
v -8.874990 3.109586 -12.796618
vt 0.490649 0.392843
vt 0.509403 0.394464
vt 0.491397 0.511445
vt 0.472643 0.509824
vt 0.262466 0.377987
vt 0.281220 0.379608
vt 0.246787 0.603313
vt 0.228032 0.601692
vt 0.264616 0.364018
vt 0.283371 0.365639
vt 0.281220 0.379608
vt 0.262466 0.377987
vt 0.096615 0.363843
vt 0.115370 0.365465
vt 0.080966 0.588976
vt 0.062211 0.587354
vt 0.454666 0.429476
vt 0.375116 0.428643
vt 0.375183 0.425037
vt 0.454733 0.425870
vt 0.677699 0.641153
vt 0.690840 0.071660
vt 0.736191 0.072248
vt 0.723049 0.641741
vt 0.704617 0.826237
vt 0.725798 0.826847
vt 0.723045 0.880536
vt 0.701864 0.879926
vt 0.537683 0.609266
vt 0.738051 0.615038
vt 0.736288 0.649427
vt 0.535919 0.643655
vt 0.543091 0.336842
vt 0.743633 0.342618
vt 0.741870 0.377007
vt 0.541328 0.371230
vt 0.435610 0.824989
vt 0.612989 0.830099
vt 0.610236 0.883789
vt 0.432857 0.878679
vt 0.530668 0.456399
vt 0.531180 0.428893
vt 0.534283 0.426702
vt 0.533720 0.456902
vt 0.457753 0.428124
vt 0.454733 0.425870
vt 0.456968 0.470223
vt 0.456907 0.473508
vt 0.453805 0.475698
vt 0.453872 0.472092
vt 0.530335 0.474276
vt 0.533355 0.476531
vt 0.109905 0.242088
vt 0.448817 0.251851
vt 0.446064 0.305540
vt 0.107151 0.295778
vt 0.102662 0.383326
vt 0.441869 0.393097
vt 0.439116 0.446787
vt 0.099909 0.437015
vt 0.377570 0.250330
vt 0.377110 0.259301
vt 0.329742 0.257936
vt 0.330202 0.248966
vt 0.609053 0.530972
vt 0.712531 0.533953
vt 0.710768 0.568341
vt 0.607289 0.565360
vt 0.535239 0.293857
vt 0.743006 0.300160
vt 0.732944 0.486482
vt 0.525176 0.480179
vt 0.732944 0.486482
vt 0.722881 0.672804
vt 0.515114 0.666501
vt 0.525176 0.480179
vt 0.258621 0.292809
vt 0.248568 0.478970
vt 0.223259 0.478202
vt 0.233312 0.292042
vt 0.284304 0.106961
vt 0.274242 0.293283
vt 0.248933 0.292516
vt 0.258995 0.106194
vt 0.576365 0.134083
vt 0.567683 0.294841
vt 0.542374 0.294074
vt 0.551056 0.133315
vt 0.257615 0.131757
vt 0.248933 0.292516
vt 0.223624 0.291748
vt 0.232306 0.130989
vt 0.541797 0.529035
vt 0.554154 0.529391
vt 0.552390 0.563779
vt 0.540034 0.563423
vt 0.330202 0.248966
vt 0.377570 0.250330
vt 0.457240 0.455630
vt 0.454170 0.456069
vt 0.530396 0.470992
vt 0.533422 0.472924
vt 0.441869 0.393097
vt 0.463050 0.393707
vt 0.460296 0.447397
vt 0.439116 0.446787
vt 0.610510 0.823526
vt 0.607757 0.877215
vt 0.476209 0.638541
vt 0.489351 0.069049
vt 0.454367 0.445498
vt 0.374817 0.444665
vt 0.274169 0.301955
vt 0.292923 0.303576
vt 0.502352 0.316811
vt 0.521107 0.318433
vt 0.518957 0.332401
vt 0.500202 0.330779
vt 0.292175 0.184974
vt 0.310930 0.186596
vt 0.453805 0.475698
vt 0.374255 0.474865
vt 0.096428 0.633618
vt 0.109570 0.064125
vt 0.433131 0.818417
vt 0.430378 0.872106
vt 0.168287 0.251715
vt 0.164435 0.326838
vt 0.117067 0.325473
vt 0.120919 0.250350
vt 0.168601 0.245596
vt 0.168287 0.251714
vt 0.120919 0.250350
vt 0.121233 0.244232
vt 0.376137 0.373825
vt 0.376436 0.357802
vt 0.379506 0.357363
vt 0.379234 0.371956
vt 0.231748 0.247415
vt 0.231434 0.253533
vt 0.556504 0.483547
vt 0.611404 0.485129
vt 0.231434 0.253534
vt 0.227581 0.328657
vt 0.436801 0.746843
vt 0.614181 0.751952
vt 0.708288 0.754663
vt 0.445539 0.321523
vt 0.466720 0.322133
vt 0.455142 0.128513
vt 0.455628 0.119037
vt 0.554217 0.121877
vt 0.553731 0.131353
vt 0.544148 0.483191
vt 0.714882 0.488109
vt 0.440716 0.252149
vt 0.440256 0.261120
vt 0.106332 0.311752
vt 0.445539 0.321523
vt 0.113575 0.170514
vt 0.452488 0.180277
vt 0.439280 0.753415
vt 0.616660 0.758525
vt 0.545442 0.290998
vt 0.745984 0.296775
vt 0.540034 0.563423
vt 0.740402 0.569195
vt 0.729468 0.755273
vt 0.553731 0.131353
vt 0.554217 0.121877
vt 0.628171 0.124007
vt 0.627685 0.133483
vt 0.463050 0.393707
vt 0.460296 0.447397
vt 0.453872 0.472092
vt 0.456968 0.470223
vn -1.0000 0.0000 0.0000
vn 0.0000 0.0000 -1.0000
vn 1.0000 0.0000 0.0000
vn 0.0000 0.0000 1.0000
vn 0.0000 -1.0000 0.0000
vn 0.0000 1.0000 0.0000
vn -0.2075 0.0000 0.9782
vn 0.6500 0.0000 -0.7600
g Cube.006_Cube.007_metal03
usemtl metal03
s off
f 44/1/1 39/2/1 10/3/1 3/4/1
f 3/5/2 10/6/2 11/7/2 7/8/2
f 31/9/3 32/10/3 12/11/3 5/12/3
f 5/13/4 12/14/4 9/15/4 1/16/4
f 29/17/5 31/18/5 5/19/5 1/20/5
f 34/21/6 33/22/6 2/23/6 6/24/6
f 60/25/1 55/26/1 13/27/1 35/28/1
f 54/29/4 53/30/4 19/31/4 18/32/4
f 49/33/2 50/34/2 17/35/2 20/36/2
f 64/37/3 52/38/3 15/39/3 47/40/3
f 43/41/6 18/42/6 14/43/6 42/44/6
f 18/42/6 19/45/6 15/46/6 14/43/6
f 38/47/6 20/48/6 16/49/6 36/50/6
f 20/48/6 17/51/6 13/52/6 16/49/6
f 55/53/4 51/54/4 16/55/4 13/56/4
f 52/57/2 56/58/2 14/59/2 15/60/2
f 58/61/1 49/62/1 20/63/1 38/64/1
f 63/65/3 54/66/3 18/67/3 43/68/3
f 22/69/6 21/70/6 23/71/6 24/72/6
f 25/73/5 27/74/5 28/75/5 26/76/5
f 23/77/4 21/78/4 26/79/4 28/80/4
f 22/81/2 24/82/2 27/83/2 25/84/2
f 24/85/3 23/86/3 28/87/3 27/88/3
f 21/89/1 22/90/1 25/91/1 26/92/1
f 50/93/3 57/94/3 37/95/3 17/96/3
f 58/61/1 38/64/1 66/97/1 65/98/1
f 48/99/6 38/47/6 36/50/6 47/100/6
f 17/51/6 37/101/6 35/102/6 13/52/6
f 51/103/3 59/104/3 36/105/3 16/106/3
f 61/107/1 60/25/1 35/28/1 42/108/1
f 46/109/6 41/110/6 33/22/6 34/21/6
f 44/111/5 40/112/5 31/18/5 29/17/5
f 40/113/3 45/114/3 32/10/3 31/9/3
f 1/115/1 9/116/1 30/117/1 29/118/1
f 7/119/3 11/120/3 45/114/3 40/113/3
f 3/121/5 7/122/5 40/112/5 44/111/5
f 8/123/6 4/124/6 41/110/6 46/109/6
f 56/125/1 61/107/1 42/108/1 14/126/1
f 19/45/6 48/99/6 47/100/6 15/46/6
f 53/127/1 62/128/1 48/129/1 19/130/1
f 57/94/3 63/65/3 43/68/3 37/95/3
f 37/101/6 43/41/6 42/44/6 35/102/6
f 62/131/7 64/132/7 47/133/7 48/134/7
f 29/118/1 30/117/1 39/2/1 44/1/1
f 32/135/6 45/136/6 46/137/6 34/138/6
f 46/139/7 45/140/7 64/132/7 62/131/7
f 33/141/3 41/142/3 63/65/3 57/94/3
f 8/143/1 46/144/1 62/128/1 53/127/1
f 10/145/1 39/146/1 61/107/1 56/125/1
f 39/146/1 30/147/1 60/25/1 61/107/1
f 12/148/3 32/149/3 59/104/3 51/103/3
f 32/150/8 34/151/8 58/152/8 59/153/8
f 2/154/3 33/141/3 57/94/3 50/93/3
f 41/142/3 4/155/3 54/66/3 63/65/3
f 34/156/1 6/157/1 49/62/1 58/61/1
f 11/158/2 10/159/2 56/58/2 52/57/2
f 9/160/4 12/161/4 51/54/4 55/53/4
f 45/162/3 11/163/3 52/38/3 64/37/3
f 6/164/2 2/165/2 50/34/2 49/33/2
f 4/166/4 8/167/4 53/30/4 54/29/4
f 30/147/1 9/168/1 55/26/1 60/25/1
f 68/169/8 65/170/8 66/171/8 67/172/8
f 59/153/5 58/152/5 65/170/5 68/169/5
f 36/105/3 59/104/3 68/173/3 67/174/3
f 38/47/6 36/50/6 67/175/6 66/176/6
