# Blender v2.81 (sub 16) OBJ File: 'section2.blend'
# www.blender.org
mtllib metal_box.mtl
o Cube.011_Cube
v -12.978895 0.046693 5.187645
v -12.978895 2.046693 5.187645
v -12.978895 0.046693 4.112758
v -12.978895 2.046693 4.112758
v -10.978895 0.046693 5.187645
v -10.978895 2.046693 5.187645
v -10.978895 0.046693 4.112758
v -10.978895 2.046693 4.112758
vt 0.141334 0.526195
vt 0.142209 0.406921
vt 0.354544 0.407797
vt 0.353669 0.527070
vt 0.566879 0.408672
vt 0.566003 0.527945
vt 0.779213 0.409547
vt 0.778338 0.528820
vt 0.984958 0.234576
vt 0.984958 0.782504
vt 0.009517 0.782504
vt 0.009517 0.234576
vt 0.565128 0.647219
vt 0.777463 0.648094
vt 0.567754 0.289398
vt 0.780089 0.290273
vn -1.0000 0.0000 0.0000
vn 0.0000 0.0000 -1.0000
vn 1.0000 0.0000 0.0000
vn 0.0000 0.0000 1.0000
vn 0.0000 -1.0000 0.0000
vn 0.0000 1.0000 0.0000
g Cube.011_Cube_metal02
usemtl metal02
s off
f 1/1/1 2/2/1 4/3/1 3/4/1
f 3/4/2 4/3/2 8/5/2 7/6/2
f 7/6/3 8/5/3 6/7/3 5/8/3
f 5/9/4 6/10/4 2/11/4 1/12/4
f 3/13/5 7/6/5 5/8/5 1/14/5
f 8/5/6 4/15/6 2/16/6 6/7/6
