# Blender v2.81 (sub 16) OBJ File: 'section2.blend'
# www.blender.org
mtllib newspaperhouse.mtl
o Cube.013
v 27.945896 -4.395511 8.012124
v 28.218697 0.207689 7.739324
v 27.945896 -4.395511 -3.921585
v 28.555721 0.544714 -3.648785
v 35.789066 -4.395511 8.012124
v 35.516266 0.207689 7.739324
v 35.789066 -4.395511 -3.921585
v 35.179241 0.544714 -3.648785
v 27.945896 0.207689 8.012124
v 27.945896 0.207689 -3.921585
v 35.789066 0.207689 -3.921585
v 35.789066 0.207689 8.012124
v 33.174675 -4.395511 -3.921585
v 30.560286 -4.395511 -3.921585
v 30.560286 0.207689 -3.921585
v 33.174675 0.207689 -3.921585
v 30.560286 -4.395511 8.012124
v 33.174675 -4.395511 8.012124
v 33.174675 0.207689 8.012124
v 30.560286 0.207689 8.012124
v 30.651218 0.544714 -3.648785
v 33.083744 0.544714 -3.648785
v 33.083744 0.207689 7.739324
v 30.651218 0.207689 7.739324
v 27.945896 4.172634 8.012124
v 27.945896 4.172634 -3.921585
v 33.174675 4.172634 -3.921585
v 35.789066 4.172634 -3.921585
v 35.789066 4.172634 8.012124
v 30.560286 4.172634 8.012124
v 28.218697 4.172634 7.739324
v 28.555721 3.835609 -3.648785
v 33.083744 3.835609 -3.648785
v 35.179241 3.835609 -3.648785
v 35.516266 4.172634 7.739324
v 30.651218 4.172634 7.739324
v 30.560286 4.172634 -3.921585
v 33.174675 4.172634 8.012124
v 30.651218 3.835609 -3.648785
v 33.083744 4.172634 7.739324
v 30.396286 6.994415 8.247671
v 30.396286 6.994415 -4.157132
v 33.338673 6.994415 8.247671
v 33.338673 6.994415 -4.157132
v 31.322897 6.994415 -4.157132
v 32.412064 6.994415 -4.157132
v 32.412064 6.994415 8.247671
v 31.322897 6.994415 8.247671
v 28.398991 4.402443 8.247671
v 28.398991 4.402443 -4.157132
v 33.247601 4.402443 -4.157132
v 35.335972 4.402443 -4.157132
v 35.335972 4.402443 8.247671
v 30.487362 4.402443 8.247671
v 30.487362 4.402443 -4.157132
v 33.247601 4.402443 8.247671
v 32.412064 7.324893 -4.415902
v 33.501228 7.324893 -4.415902
v 31.322897 7.324893 8.506442
v 30.233730 7.324893 8.506442
v 30.233730 7.324893 -4.415902
v 31.322897 7.324893 -4.415902
v 33.501228 7.324893 8.506442
v 32.412064 7.324893 8.506442
v 33.077808 5.090096 -2.902983
v 35.007381 5.090096 -2.902983
v 30.657156 5.090096 6.993523
v 28.727581 5.090096 6.993523
v 28.727581 5.090096 -2.902983
v 30.657156 5.090096 -2.902983
v 35.007381 5.090096 6.993523
v 33.077808 5.090096 6.993523
v 33.083744 0.207689 -3.648785
v 35.516266 0.207689 -3.648785
v 28.218697 0.207689 -3.648785
v 30.651218 0.207689 -3.648785
v 33.083744 4.172634 -3.648785
v 35.516266 4.172634 -3.648785
v 28.218697 4.172634 -3.648785
v 30.651218 4.172634 -3.648785
v 27.727123 4.071965 8.247671
v 27.727123 4.071965 -4.157132
v 33.247601 4.071965 -4.157132
v 36.007839 4.071965 -4.157132
v 36.007839 4.071965 8.247671
v 30.487362 4.071965 8.247671
v 30.487362 4.071965 -4.157132
v 33.247601 4.071965 8.247671
vt 0.628213 0.101385
vt 0.627657 0.101385
vt 0.627657 0.085329
vt 0.628213 0.085329
vt 0.631188 0.114406
vt 0.631188 0.113919
vt 0.635610 0.113919
vt 0.635610 0.114406
vt 0.654036 0.101334
vt 0.653334 0.101334
vt 0.653334 0.085329
vt 0.654036 0.085329
vt 0.660742 0.092364
vt 0.661354 0.092364
vt 0.661354 0.095881
vt 0.660742 0.095881
vt 0.633611 0.085329
vt 0.636310 0.085329
vt 0.636310 0.101385
vt 0.633611 0.101385
vt 0.204052 0.255467
vt 0.076749 0.255467
vt 0.076749 0.022572
vt 0.204052 0.022572
vt 0.865841 0.286646
vt 0.850605 0.286646
vt 0.850605 0.270634
vt 0.865841 0.270634
vt 0.818987 0.196740
vt 0.903293 0.196740
vt 0.903293 0.217531
vt 0.818987 0.217531
vt 0.838403 0.194843
vt 0.818987 0.194843
vt 0.818987 0.176732
vt 0.838403 0.176732
vt 0.877235 0.194843
vt 0.857819 0.194843
vt 0.857819 0.176732
vt 0.877235 0.176732
vt 0.331355 0.022572
vt 0.199293 0.016993
vt 0.336114 0.016993
vt 0.865841 0.243457
vt 0.867468 0.243457
vt 0.867468 0.261839
vt 0.865841 0.261839
vt 0.916510 0.248298
vt 0.918100 0.248040
vt 0.918100 0.262602
vt 0.916510 0.262859
vt 0.458659 0.255467
vt 0.331355 0.255467
vt 0.458659 0.022572
vt 0.630912 0.085329
vt 0.630912 0.101385
vt 0.660742 0.085329
vt 0.661354 0.085329
vt 0.661354 0.088846
vt 0.660742 0.088846
vt 0.622345 0.114406
vt 0.622345 0.113919
vt 0.626767 0.113919
vt 0.626767 0.114406
vt 0.009543 0.335853
vt 0.009543 0.491532
vt 0.000000 0.495261
vt 0.000000 0.332124
vt 0.179735 0.491532
vt 0.264831 0.491532
vt 0.274374 0.495261
vt 0.182916 0.495261
vt 0.264831 0.335853
vt 0.274374 0.332124
vt 0.094639 0.335853
vt 0.091458 0.332124
vt 0.179735 0.335853
vt 0.182916 0.332124
vt 0.094639 0.491532
vt 0.091458 0.495261
vt 0.903293 0.184004
vt 0.987869 0.184004
vt 0.987869 0.200474
vt 0.903293 0.200474
vt 0.835369 0.286646
vt 0.820133 0.286646
vt 0.820133 0.270634
vt 0.835369 0.270634
vt 0.835899 0.260090
vt 0.821723 0.260090
vt 0.821723 0.244078
vt 0.835899 0.244078
vt 0.864251 0.260090
vt 0.850075 0.260090
vt 0.850075 0.244078
vt 0.864251 0.244078
vt 0.818987 0.219709
vt 0.907332 0.219709
vt 0.907332 0.240501
vt 0.818987 0.240501
vt 0.818987 0.299322
vt 0.907615 0.299322
vt 0.907615 0.315792
vt 0.818987 0.315792
vt 0.334279 0.304661
vt 0.320650 0.304661
vt 0.320650 0.515428
vt 0.334279 0.515428
vt 0.361538 0.304661
vt 0.347909 0.304661
vt 0.347909 0.515428
vt 0.361538 0.515428
vt 0.433829 0.519914
vt 0.433829 0.610323
vt 0.478938 0.610323
vt 0.478938 0.519914
vt 0.332130 0.519914
vt 0.332130 0.610323
vt 0.377239 0.610323
vt 0.377239 0.519914
vt 0.535536 0.699906
vt 0.602226 0.692435
vt 0.602226 0.490755
vt 0.535536 0.489811
vt 0.416699 0.656328
vt 0.433829 0.619504
vt 0.377239 0.619504
vt 0.394369 0.656328
vt 0.718804 0.667485
vt 0.672517 0.653857
vt 0.672517 0.698877
vt 0.718804 0.685249
vt 0.435696 0.656328
vt 0.476644 0.619504
vt 0.718804 0.652371
vt 0.672517 0.619795
vt 0.334424 0.619504
vt 0.375372 0.656328
vt 0.672517 0.732939
vt 0.718804 0.700363
vt 0.445732 0.511207
vt 0.445732 0.308881
vt 0.727312 0.667485
vt 0.727312 0.649720
vt 0.416699 0.663097
vt 0.439029 0.663097
vt 0.727312 0.703014
vt 0.727312 0.685249
vt 0.372039 0.663097
vt 0.394369 0.663097
vt 0.666615 0.608837
vt 0.666615 0.653857
vt 0.490418 0.614809
vt 0.433829 0.614809
vt 0.666615 0.698877
vt 0.666615 0.743897
vt 0.377239 0.614809
vt 0.320650 0.614809
vt 0.830262 0.284905
vt 0.877887 0.284905
vt 0.877887 0.289616
vt 0.822602 0.289616
vt 0.933171 0.284905
vt 0.980796 0.284905
vt 0.988456 0.289616
vt 0.933171 0.289616
vt 0.877887 0.238906
vt 0.830262 0.238906
vt 0.822602 0.234195
vt 0.877887 0.234195
vt 0.980796 0.238906
vt 0.933171 0.238906
vt 0.933171 0.234195
vt 0.988456 0.234195
vt 0.490418 0.515428
vt 0.377239 0.515428
vt 0.320650 0.515428
vt 0.433829 0.515428
vt 0.009200 0.312002
vt 0.013164 -0.002946
vt 0.992746 -0.000829
vt 0.988781 0.314119
vt 0.000633 0.992549
vt 0.004597 0.677603
vt 0.984179 0.679720
vt 0.980214 0.994666
vn -1.0000 0.0000 0.0000
vn 0.0000 0.0000 -1.0000
vn 1.0000 0.0000 0.0000
vn 0.0000 0.0000 1.0000
vn 0.0000 -1.0000 0.0000
vn 0.0000 1.0000 0.0000
vn 0.9487 0.0000 0.3162
vn -0.9487 0.0000 0.3162
vn -0.7921 0.6104 0.0000
vn 0.7921 0.6104 0.0000
vn 0.0000 -0.6165 -0.7873
vn 0.0000 -0.6165 0.7873
vn 0.2859 -0.2611 0.9220
vn 0.2859 -0.2611 -0.9220
vn -0.2859 -0.2611 -0.9220
vn -0.2859 -0.2611 0.9220
vn 0.7133 -0.7009 0.0000
vn 0.0000 -0.7764 0.6303
vn -0.7133 -0.7009 0.0000
vn 0.0000 -0.7764 -0.6303
g Cube.013_Cube.013_red_roofed_house
usemtl red_roofed_house
s off
f 1/1/1 9/2/1 10/3/1 3/4/1
f 13/5/2 16/6/2 11/7/2 7/8/2
f 7/9/3 11/10/3 12/11/3 5/12/3
f 17/13/4 20/14/4 9/15/4 1/16/4
f 13/17/5 7/18/5 5/19/5 18/20/5
f 76/21/6 75/22/6 2/23/6 24/24/6
f 11/25/2 16/26/2 27/27/2 28/28/2
f 2/29/3 75/30/3 79/31/3 31/32/3
f 19/33/4 12/34/4 29/35/4 38/36/4
f 9/37/4 20/38/4 30/39/4 25/40/4
f 23/41/6 24/24/6 20/42/6 19/43/6
f 20/44/7 24/45/7 36/46/7 30/47/7
f 23/48/8 19/49/8 38/50/8 40/51/8
f 74/52/6 73/53/6 23/41/6 6/54/6
f 73/53/6 76/21/6 24/24/6 23/41/6
f 3/4/5 14/55/5 17/56/5 1/1/5
f 14/55/5 13/17/5 18/20/5 17/56/5
f 5/57/4 12/58/4 19/59/4 18/60/4
f 18/60/4 19/59/4 20/14/4 17/13/4
f 3/61/2 10/62/2 15/63/2 14/64/2
f 14/64/2 15/63/2 16/6/2 13/5/2
f 31/65/6 79/66/6 26/67/6 25/68/6
f 77/69/6 78/70/6 28/71/6 27/72/6
f 78/70/6 35/73/6 29/74/6 28/71/6
f 36/75/6 31/65/6 25/68/6 30/76/6
f 35/73/6 40/77/6 38/78/6 29/74/6
f 79/66/6 80/79/6 37/80/6 26/67/6
f 80/79/6 77/69/6 27/72/6 37/80/6
f 74/81/1 6/82/1 35/83/1 78/84/1
f 15/85/2 10/86/2 26/87/2 37/88/2
f 24/89/2 2/90/2 31/91/2 36/92/2
f 6/93/2 23/94/2 40/95/2 35/96/2
f 12/97/3 11/98/3 28/99/3 29/100/3
f 16/26/2 15/85/2 37/88/2 27/27/2
f 10/101/1 9/102/1 25/103/1 26/104/1
f 62/105/6 61/106/6 60/107/6 59/108/6
f 58/109/6 57/110/6 64/111/6 63/112/6
f 57/110/6 62/105/6 59/108/6 64/111/6
f 70/113/5 67/114/5 68/115/5 69/116/5
f 66/117/5 71/118/5 72/119/5 65/120/5
f 65/120/5 72/119/5 67/114/5 70/113/5
f 61/121/9 82/122/9 81/123/9 60/124/9
f 48/125/4 54/126/4 56/127/4 47/128/4
f 46/129/2 51/130/2 55/131/2 45/132/2
f 41/133/4 49/134/4 54/126/4 48/125/4
f 44/135/2 52/136/2 51/130/2 46/129/2
f 47/128/4 56/127/4 53/137/4 43/138/4
f 45/132/2 55/131/2 50/139/2 42/140/2
f 63/112/10 85/141/10 84/142/10 58/109/10
f 46/129/11 57/143/11 58/144/11 44/135/11
f 48/125/12 59/145/12 60/146/12 41/133/12
f 42/140/11 61/147/11 62/148/11 45/132/11
f 45/132/11 62/148/11 57/143/11 46/129/11
f 43/138/12 63/149/12 64/150/12 47/128/12
f 47/128/12 64/150/12 59/145/12 48/125/12
f 52/136/2 84/151/2 83/152/2 51/130/2
f 49/134/4 81/153/4 86/154/4 54/126/4
f 55/131/2 87/155/2 82/156/2 50/139/2
f 51/130/2 83/152/2 87/155/2 55/131/2
f 56/127/4 88/157/4 85/158/4 53/137/4
f 54/126/4 86/154/4 88/157/4 56/127/4
f 41/133/13 60/146/13 81/153/13 49/134/13
f 50/139/14 82/156/14 61/147/14 42/140/14
f 44/135/15 58/144/15 84/151/15 52/136/15
f 53/137/16 85/158/16 63/149/16 43/138/16
f 8/159/4 22/160/4 73/161/4 74/162/4
f 21/163/4 4/164/4 75/165/4 76/166/4
f 22/160/4 21/163/4 76/166/4 73/161/4
f 33/167/4 34/168/4 78/169/4 77/170/4
f 32/171/4 39/172/4 80/173/4 79/174/4
f 39/172/4 33/167/4 77/170/4 80/173/4
f 4/164/4 32/171/4 79/174/4 75/165/4
f 34/168/4 8/159/4 74/162/4 78/169/4
f 69/116/17 68/115/17 81/153/17 82/175/17
f 66/117/18 65/120/18 83/176/18 84/177/18
f 71/118/19 66/117/19 84/177/19 85/158/19
f 68/115/20 67/114/20 86/154/20 81/153/20
f 70/113/18 69/116/18 82/175/18 87/178/18
f 65/120/18 70/113/18 87/178/18 83/176/18
f 72/119/20 71/118/20 85/158/20 88/157/20
f 67/114/20 72/119/20 88/157/20 86/154/20
g Cube.013_Cube.013_newspaper
usemtl newspaper
f 22/179/4 8/180/4 34/181/4 33/182/4
f 4/183/4 21/184/4 39/185/4 32/186/4
f 21/184/4 22/179/4 33/182/4 39/185/4
