# Blender v2.81 (sub 16) OBJ File: 'section2.blend'
# www.blender.org
mtllib rail01.mtl
o Cube.001_Cube.002
v -1.408865 -0.104185 0.072772
v -1.408865 1.408824 0.072772
v -1.408865 -0.104185 -0.072772
v -1.408865 1.408824 -0.072772
v -1.263321 -0.104185 0.072772
v -1.263321 1.408824 0.072772
v -1.263321 -0.104185 -0.072772
v -1.263321 1.408824 -0.072772
v -1.408865 -0.104185 -1.333155
v -1.408865 1.408824 -1.333155
v -1.408865 -0.104185 -1.478698
v -1.408865 1.408824 -1.478698
v -1.263321 -0.104185 -1.333155
v -1.263321 1.408824 -1.333155
v -1.263321 -0.104185 -1.478698
v -1.263321 1.408824 -1.478698
v -1.398935 0.589477 -1.343968
v -1.398935 0.589477 -0.037410
v -1.398935 0.715161 -1.343968
v -1.398935 0.715161 -0.037410
v -1.273251 0.589477 -1.343968
v -1.273251 0.589477 -0.037410
v -1.273251 0.715161 -1.343968
v -1.273251 0.715161 -0.037410
v -1.418898 1.251836 -1.551495
v -1.418898 1.251836 0.170117
v -1.418898 1.417446 -1.551495
v -1.418898 1.417446 0.170117
v -1.253288 1.251836 -1.551495
v -1.253288 1.251836 0.170117
v -1.253288 1.417446 -1.551495
v -1.253288 1.417446 0.170117
vt 0.353016 0.459421
vt -0.000217 0.334070
vt 0.008916 0.319584
vt 0.362148 0.444935
vt 0.343883 0.473907
vt -0.009350 0.348556
vt -0.000217 0.334070
vt 0.353016 0.459421
vt 0.063713 0.232666
vt 0.416945 0.358017
vt 0.407812 0.372503
vt 0.054580 0.247152
vt 0.371281 0.430448
vt 0.018049 0.305097
vt 0.027181 0.290611
vt 0.380414 0.415962
vt 0.364667 0.440940
vt 0.373799 0.426454
vt 0.407778 0.438512
vt 0.398645 0.452998
vt 0.416911 0.424025
vt 0.407778 0.438512
vt 0.373799 0.426454
vt 0.382932 0.411967
vt 0.362148 0.444935
vt 0.008916 0.319584
vt 0.018049 0.305097
vt 0.371281 0.430448
vt 0.398679 0.386989
vt 0.045447 0.261638
vt 0.054580 0.247152
vt 0.407812 0.372503
vt 0.036314 0.276125
vt 0.389547 0.401475
vt 0.380414 0.415962
vt 0.027181 0.290611
vt 0.389547 0.401475
vt 0.036314 0.276125
vt 0.045447 0.261638
vt 0.398679 0.386989
vt 0.392065 0.397481
vt 0.401198 0.382995
vt 0.435177 0.395053
vt 0.426044 0.409539
vt 0.426044 0.409539
vt 0.416911 0.424025
vt 0.382932 0.411967
vt 0.392065 0.397481
vt 0.095259 0.182627
vt 0.400292 0.290874
vt 0.392406 0.303383
vt 0.087372 0.195137
vt 0.384519 0.315893
vt 0.079486 0.207646
vt 0.071599 0.220156
vt 0.376632 0.328402
vt 0.368746 0.340912
vt 0.063713 0.232666
vt 0.376632 0.328402
vt 0.071599 0.220156
vt 0.079486 0.207646
vt 0.384519 0.315893
vt 0.401198 0.382995
vt 0.409084 0.370485
vt 0.438427 0.380898
vt 0.430540 0.393407
vt 0.430540 0.393407
vt 0.438427 0.380898
vt 0.467769 0.391311
vt 0.459883 0.403820
vt -0.009350 0.348556
vt 0.392584 0.491190
vt 0.382192 0.507673
vt -0.019742 0.365040
vt 0.361408 0.540640
vt -0.040525 0.398007
vt -0.030134 0.381524
vt 0.371800 0.524157
vt -0.019742 0.365040
vt 0.382192 0.507673
vt -0.040525 0.398007
vt 0.361408 0.540640
vt 0.351016 0.557124
vt -0.050917 0.414491
vt 0.343883 0.473907
vt 0.354275 0.457424
vt 0.392938 0.471144
vt 0.382546 0.487628
vt 0.354275 0.457424
vt 0.364667 0.440940
vt 0.403330 0.454661
vt 0.392938 0.471144
vn -1.0000 0.0000 0.0000
vn 0.0000 0.0000 -1.0000
vn 1.0000 0.0000 0.0000
vn 0.0000 0.0000 1.0000
vn 0.0000 -1.0000 0.0000
vn 0.0000 1.0000 0.0000
g Cube.001_Cube.002_Material.003
usemtl Material.003
s off
f 1/1/1 2/2/1 4/3/1 3/4/1
f 3/5/2 4/6/2 8/7/2 7/8/2
f 7/9/3 8/10/3 6/11/3 5/12/3
f 5/13/4 6/14/4 2/15/4 1/16/4
f 3/17/5 7/18/5 5/19/5 1/20/5
f 8/21/6 4/22/6 2/23/6 6/24/6
f 9/25/1 10/26/1 12/27/1 11/28/1
f 11/29/2 12/30/2 16/31/2 15/32/2
f 15/33/3 16/34/3 14/35/3 13/36/3
f 13/37/4 14/38/4 10/39/4 9/40/4
f 11/41/5 15/42/5 13/43/5 9/44/5
f 16/45/6 12/46/6 10/47/6 14/48/6
f 17/49/1 18/50/1 20/51/1 19/52/1
f 19/52/6 20/51/6 24/53/6 23/54/6
f 23/55/3 24/56/3 22/57/3 21/58/3
f 21/59/5 22/60/5 18/61/5 17/62/5
f 19/63/2 23/64/2 21/65/2 17/66/2
f 24/67/4 20/68/4 18/69/4 22/70/4
f 25/71/1 26/72/1 28/73/1 27/74/1
f 27/75/6 28/76/6 32/77/6 31/78/6
f 31/78/3 32/77/3 30/79/3 29/80/3
f 29/81/5 30/82/5 26/83/5 25/84/5
f 27/85/2 31/86/2 29/87/2 25/88/2
f 32/89/4 28/90/4 26/91/4 30/92/4
