# Blender v2.81 (sub 16) OBJ File: 'section2.blend'
# www.blender.org
mtllib rail02.mtl
o Cylinder.001
v 1.232525 2.121007 -9.038314
v 1.077168 2.286834 -8.973963
v 1.102712 2.121007 -9.281178
v 0.962894 2.286834 -9.187755
v 1.077169 2.286834 -8.027510
v 1.232526 2.121007 -7.963159
v 0.962894 2.286834 -7.813718
v 1.102712 2.121007 -7.720294
v 0.962894 0.250113 -9.187755
v 1.077168 0.250113 -8.973963
v 1.102712 0.084286 -9.281178
v 1.232525 0.084286 -9.038314
v 1.077169 0.250113 -8.027510
v 1.232526 0.084286 -7.963159
v 0.962894 0.250113 -7.813718
v 1.102712 0.084286 -7.720294
v 0.978558 1.552114 -7.829699
v 1.137818 1.536723 -7.899969
v 0.978558 1.363070 -7.829699
v 1.137818 1.347678 -7.899969
v 0.978558 1.552114 -9.182434
v 1.137818 1.536723 -9.104740
v 0.978558 1.363070 -9.182434
v 1.137818 1.347678 -9.104740
vt 0.742031 0.766135
vt 0.742031 0.665404
vt 0.677349 0.668926
vt 0.677349 0.757598
vt 0.677349 0.665404
vt 0.677349 0.564674
vt 0.612668 0.573210
vt 0.612668 0.661883
vt 0.612668 0.766135
vt 0.677349 0.757598
vt 0.677349 0.668926
vt 0.612668 0.665404
vt 0.677349 0.665404
vt 0.742031 0.661883
vt 0.742031 0.573210
vt 0.677349 0.564674
vt 0.559621 0.903245
vt 0.559621 0.157474
vt 0.501274 0.096755
vt 0.501274 0.842526
vt 0.441152 0.842526
vt 0.441152 0.096755
vt 0.363132 0.096755
vt 0.363132 0.842526
vt 0.612668 0.842526
vt 0.612668 0.096755
vt 0.559621 0.157474
vt 0.559621 0.903245
vt 0.096755 0.096755
vt 0.096755 0.842526
vt 0.192306 0.842526
vt 0.192306 0.096755
vt 0.501273 0.842526
vt 0.501274 0.096755
vt 0.441152 0.157474
vt 0.441152 0.903245
vt 0.788780 0.903245
vt 0.788780 0.157474
vt 0.752949 0.096755
vt 0.752949 0.842525
vt 0.363132 0.842526
vt 0.363132 0.096755
vt 0.279019 0.096755
vt 0.279019 0.842526
vt 0.279019 0.842526
vt 0.279018 0.096755
vt 0.192306 0.096755
vt 0.192306 0.842526
vt 0.680284 0.135949
vt 0.685328 0.096755
vt 0.617712 0.097590
vt 0.612668 0.136784
vt 0.612668 0.771771
vt 0.612668 0.840992
vt 0.676023 0.835356
vt 0.676023 0.766135
vt 0.617712 0.564674
vt 0.685328 0.563839
vt 0.788780 0.122485
vt 0.788780 0.563627
vt 0.846013 0.592076
vt 0.846013 0.096755
vt 0.752949 0.533589
vt 0.752949 0.096755
vt 0.685328 0.096755
vt 0.685328 0.533589
vt 0.846013 0.096755
vt 0.846013 0.592076
vt 0.903245 0.563627
vt 0.903245 0.122485
vn 0.6208 0.7103 -0.3318
vn 0.6208 0.7103 0.3318
vn -0.6208 -0.7103 0.3318
vn -0.6208 -0.7103 -0.3318
vn -0.5556 0.0000 0.8315
vn 0.8819 0.0000 -0.4714
vn -0.5556 0.0000 -0.8315
vn 0.8819 0.0000 0.4714
vn 0.3827 0.0000 -0.9239
vn 0.3827 0.0000 0.9239
vn -0.8819 0.0000 0.4714
vn -0.8819 0.0000 -0.4714
vn 0.4037 0.0000 0.9149
vn 0.4385 0.0000 -0.8988
vn 1.0000 0.0000 0.0000
vn 0.0962 0.9954 0.0000
vn -1.0000 0.0000 0.0000
vn -0.0962 -0.9954 0.0000
g Cylinder.001_Cylinder.001_Material.003
usemtl Material.003
s off
f 1/1/1 3/2/1 4/3/1 2/4/1
f 8/5/2 6/6/2 5/7/2 7/8/2
f 12/9/3 10/10/3 9/11/3 11/12/3
f 16/13/4 15/14/4 13/15/4 14/16/4
f 7/17/5 15/18/5 16/19/5 8/20/5
f 1/21/6 12/22/6 11/23/6 3/24/6
f 3/25/7 11/26/7 9/27/7 4/28/7
f 8/29/8 16/30/8 14/31/8 6/32/8
f 6/33/9 14/34/9 13/35/9 5/36/9
f 2/37/10 10/38/10 12/39/10 1/40/10
f 4/41/11 9/42/11 10/43/11 2/44/11
f 5/45/12 13/46/12 15/47/12 7/48/12
f 18/49/13 17/50/13 19/51/13 20/52/13
f 22/53/14 24/54/14 23/55/14 21/56/14
f 20/52/15 24/57/15 22/58/15 18/49/15
f 18/59/16 22/60/16 21/61/16 17/62/16
f 17/63/17 21/64/17 23/65/17 19/66/17
f 19/67/18 23/68/18 24/69/18 20/70/18
