# Blender v2.81 (sub 16) OBJ File: 'section2.blend'
# www.blender.org
mtllib rotating_pillar.mtl
o Cylinder
v -0.000000 -0.912707 -1.404758
v 0.274055 -0.912707 -1.377766
v 0.537578 -0.912707 -1.297827
v 0.780442 -0.912707 -1.168014
v 0.993314 -0.912707 -0.993314
v 1.168014 -0.912707 -0.780442
v 1.297827 -0.912707 -0.537578
v 1.377766 -0.912707 -0.274055
v 1.404758 -0.912707 -0.000000
v 1.377766 -0.912707 0.274055
v 1.297827 -0.912707 0.537577
v 1.168014 -0.912707 0.780442
v 0.993314 -0.912707 0.993314
v 0.780442 -0.912707 1.168014
v 0.537577 -0.912707 1.297827
v 0.274054 -0.912707 1.377766
v -0.000000 -0.912707 1.404758
v -0.274055 -0.912707 1.377766
v -0.537578 -0.912707 1.297827
v -0.780442 -0.912707 1.168013
v -0.993315 -0.912707 0.993313
v -1.168014 -0.912707 0.780441
v -1.297828 -0.912707 0.537577
v -1.377766 -0.912707 0.274053
v -1.404758 -0.912707 -0.000001
v -1.377766 -0.912707 -0.274056
v -1.297827 -0.912707 -0.537579
v -1.168013 -0.912707 -0.780443
v -0.993313 -0.912707 -0.993315
v -0.780440 -0.912707 -1.168015
v -0.537576 -0.912707 -1.297828
v -0.274053 -0.912707 -1.377766
v 0.000000 -1.466511 -1.035872
v 0.202089 -1.466511 -1.015968
v 0.396411 -1.466511 -0.957021
v 0.575500 -1.466511 -0.861296
v 0.732472 -1.466511 -0.732472
v 0.861296 -1.466511 -0.575499
v 0.957021 -1.466511 -0.396411
v 1.015968 -1.466511 -0.202089
v 1.035872 -1.466511 -0.000000
v 1.015968 -1.466511 0.202088
v 0.957021 -1.466511 0.396411
v 0.861296 -1.466511 0.575499
v 0.732472 -1.466511 0.732472
v 0.575499 -1.466511 0.861296
v 0.396411 -1.466511 0.957021
v 0.202088 -1.466511 1.015968
v -0.000000 -1.466511 1.035872
v -0.202089 -1.466511 1.015968
v -0.396411 -1.466511 0.957021
v -0.575500 -1.466511 0.861296
v -0.732472 -1.466511 0.732472
v -0.861296 -1.466511 0.575499
v -0.957021 -1.466511 0.396410
v -1.015968 -1.466511 0.202088
v -1.035872 -1.466511 -0.000001
v -1.015968 -1.466511 -0.202090
v -0.957020 -1.466511 -0.396412
v -0.861295 -1.466511 -0.575501
v -0.732471 -1.466511 -0.732473
v -0.575498 -1.466511 -0.861297
v -0.396410 -1.466511 -0.957021
v -0.202087 -1.466511 -1.015968
v 0.000000 0.169624 -1.236601
v -0.000000 0.003797 -1.404758
v 0.241249 0.169624 -1.212840
v 0.274055 0.003797 -1.377766
v 0.473226 0.169624 -1.142470
v 0.537578 0.003797 -1.297827
v 0.687019 0.169624 -1.028196
v 0.780442 0.003797 -1.168014
v 0.874409 0.169624 -0.874409
v 0.993314 0.003797 -0.993314
v 1.028196 0.169624 -0.687018
v 1.168014 0.003797 -0.780442
v 1.142470 0.169624 -0.473226
v 1.297827 0.003797 -0.537578
v 1.212840 0.169624 -0.241249
v 1.377766 0.003797 -0.274055
v 1.236601 0.169624 -0.000000
v 1.404758 0.003797 -0.000000
v 1.212840 0.169624 0.241249
v 1.377766 0.003797 0.274055
v 1.142470 0.169624 0.473226
v 1.297827 0.003797 0.537577
v 1.028196 0.169624 0.687018
v 1.168014 0.003797 0.780442
v 0.874409 0.169624 0.874409
v 0.993314 0.003797 0.993314
v 0.687018 0.169624 1.028196
v 0.780442 0.003797 1.168014
v 0.473227 0.169624 1.142470
v 0.537577 0.003797 1.297827
v 0.241249 0.169624 1.212840
v 0.274054 0.003797 1.377766
v -0.000001 0.169624 1.236601
v -0.000000 0.003797 1.404758
v -0.241249 0.169624 1.212840
v -0.274055 0.003797 1.377766
v -0.473227 0.169624 1.142470
v -0.537578 0.003797 1.297827
v -0.687019 0.169624 1.028196
v -0.780442 0.003797 1.168013
v -0.874409 0.169624 0.874408
v -0.993315 0.003797 0.993313
v -1.028197 0.169624 0.687018
v -1.168014 0.003797 0.780441
v -1.142471 0.169624 0.473226
v -1.297828 0.003797 0.537577
v -1.212840 0.169624 0.241248
v -1.377766 0.003797 0.274053
v -1.236601 0.169624 -0.000002
v -1.404758 0.003797 -0.000001
v -1.212840 0.169624 -0.241250
v -1.377766 0.003797 -0.274056
v -1.142470 0.169624 -0.473228
v -1.297827 0.003797 -0.537579
v -1.028195 0.169624 -0.687020
v -1.168013 0.003797 -0.780443
v -0.874408 0.169624 -0.874410
v -0.993313 0.003797 -0.993315
v -0.687017 0.169624 -1.028197
v -0.780440 0.003797 -1.168015
v -0.473225 0.169624 -1.142471
v -0.537576 0.003797 -1.297828
v -0.241247 0.169624 -1.212840
v -0.274053 0.003797 -1.377766
v -0.000000 -6.403553 -1.035872
v 0.202088 -6.403553 -1.015968
v 0.396410 -6.403553 -0.957021
v 0.575499 -6.403553 -0.861296
v 0.732471 -6.403553 -0.732472
v 0.861295 -6.403553 -0.575499
v 0.957020 -6.403553 -0.396411
v 1.015967 -6.403553 -0.202089
v 1.035871 -6.403553 -0.000000
v 1.015967 -6.403553 0.202088
v 0.957020 -6.403553 0.396411
v 0.861295 -6.403553 0.575499
v 0.732471 -6.403553 0.732472
v 0.575499 -6.403553 0.861296
v 0.396410 -6.403553 0.957021
v 0.202088 -6.403553 1.015968
v -0.000001 -6.403553 1.035872
v -0.202089 -6.403553 1.015968
v -0.396412 -6.403553 0.957021
v -0.575501 -6.403553 0.861296
v -0.732473 -6.403553 0.732472
v -0.861297 -6.403553 0.575499
v -0.957022 -6.403553 0.396410
v -1.015968 -6.403553 0.202088
v -1.035872 -6.403553 -0.000001
v -1.015968 -6.403553 -0.202090
v -0.957021 -6.403553 -0.396412
v -0.861296 -6.403553 -0.575501
v -0.732472 -6.403553 -0.732473
v -0.575499 -6.403553 -0.861297
v -0.396410 -6.403553 -0.957021
v -0.202088 -6.403553 -1.015968
vt 0.649404 0.624940
vt 0.649404 0.596475
vt 0.662049 0.596475
vt 0.662049 0.624940
vt 0.686132 0.624940
vt 0.686132 0.596475
vt 0.696645 0.596475
vt 0.696645 0.624940
vt 0.887142 0.767014
vt 0.887142 0.795479
vt 0.878201 0.795479
vt 0.878201 0.767014
vt 0.867688 0.795479
vt 0.867688 0.767014
vt 0.856006 0.795479
vt 0.856006 0.767014
vt 0.843605 0.795479
vt 0.843605 0.767014
vt 0.830960 0.795479
vt 0.830960 0.767014
vt 0.818559 0.795479
vt 0.818559 0.767014
vt 0.806877 0.795479
vt 0.806877 0.767014
vt 0.796364 0.795479
vt 0.796364 0.767014
vt 0.705586 0.624940
vt 0.705586 0.596475
vt 0.716099 0.596475
vt 0.716099 0.624940
vt 0.727781 0.596475
vt 0.727781 0.624940
vt 0.740182 0.596475
vt 0.740182 0.624940
vt 0.752827 0.596475
vt 0.752827 0.624940
vt 0.765228 0.596475
vt 0.765228 0.624940
vt 0.776910 0.596475
vt 0.776910 0.624940
vt 0.787423 0.596475
vt 0.787423 0.624940
vt 0.605867 0.767014
vt 0.605867 0.795479
vt 0.596926 0.795479
vt 0.596926 0.767014
vt 0.586413 0.795479
vt 0.586413 0.767014
vt 0.574731 0.795479
vt 0.574731 0.767014
vt 0.562330 0.795479
vt 0.562330 0.767014
vt 0.549686 0.795479
vt 0.549686 0.767014
vt 0.537284 0.795479
vt 0.537284 0.767014
vt 0.525602 0.795479
vt 0.525602 0.767014
vt 0.515089 0.795479
vt 0.515089 0.767014
vt 0.506148 0.795479
vt 0.506148 0.767014
vt 0.605867 0.624940
vt 0.605867 0.596475
vt 0.614808 0.596475
vt 0.614808 0.624940
vt 0.625321 0.596475
vt 0.625321 0.624940
vt 0.637003 0.596475
vt 0.637003 0.624940
vt 0.674450 0.596475
vt 0.674450 0.624940
vt 0.841944 0.749813
vt 0.851089 0.749813
vt 0.768925 0.642141
vt 0.776678 0.642141
vt 0.776678 0.795479
vt 0.768925 0.795479
vt 0.760311 0.642141
vt 0.751166 0.642141
vt 0.533587 0.749813
vt 0.542201 0.749813
vt 0.685900 0.642141
vt 0.678147 0.642141
vt 0.724084 0.642141
vt 0.716331 0.642141
vt 0.569814 0.749813
vt 0.578429 0.749813
vt 0.641920 0.642141
vt 0.633306 0.642141
vt 0.832621 0.749813
vt 0.525834 0.749813
vt 0.705586 0.624940
vt 0.692493 0.642141
vt 0.732698 0.642141
vt 0.560670 0.749813
vt 0.651065 0.642141
vt 0.823476 0.749813
vt 0.519241 0.749813
vt 0.859703 0.749813
vt 0.867456 0.749813
vt 0.741843 0.642141
vt 0.551346 0.749813
vt 0.669533 0.642141
vt 0.660388 0.642141
vt 0.814862 0.749813
vt 0.796364 0.624940
vt 0.783271 0.642141
vt 0.625553 0.642141
vt 0.618960 0.642141
vt 0.807109 0.749813
vt 0.586181 0.749813
vt 0.529419 0.872625
vt 0.520479 0.866577
vt 0.526447 0.863264
vt 0.534318 0.868588
vt 0.539933 0.877377
vt 0.543572 0.872771
vt 0.551615 0.880650
vt 0.553856 0.875652
vt 0.564016 0.882319
vt 0.564773 0.877121
vt 0.576660 0.882319
vt 0.575903 0.877121
vt 0.589061 0.880650
vt 0.586820 0.875652
vt 0.600743 0.877377
vt 0.597104 0.872771
vt 0.611257 0.872625
vt 0.606358 0.868588
vt 0.620197 0.866577
vt 0.614229 0.863264
vt 0.627222 0.859466
vt 0.620413 0.857004
vt 0.632061 0.851564
vt 0.624672 0.850048
vt 0.634528 0.843175
vt 0.626844 0.842664
vt 0.634528 0.834622
vt 0.626844 0.835134
vt 0.632061 0.826234
vt 0.624672 0.827750
vt 0.627222 0.818332
vt 0.620413 0.820794
vt 0.620197 0.811220
vt 0.614229 0.814534
vt 0.611257 0.805172
vt 0.606358 0.809210
vt 0.600743 0.800421
vt 0.597104 0.805027
vt 0.589061 0.797148
vt 0.586820 0.802145
vt 0.576660 0.795479
vt 0.575903 0.800677
vt 0.564016 0.795479
vt 0.564773 0.800677
vt 0.551615 0.797148
vt 0.553856 0.802146
vt 0.539933 0.800421
vt 0.543572 0.805027
vt 0.529419 0.805172
vt 0.534318 0.809210
vt 0.520479 0.811220
vt 0.526447 0.814534
vt 0.513454 0.818332
vt 0.520263 0.820794
vt 0.508615 0.826234
vt 0.516004 0.827750
vt 0.506148 0.834623
vt 0.513832 0.835134
vt 0.506148 0.843175
vt 0.513832 0.842664
vt 0.508615 0.851564
vt 0.516004 0.850048
vt 0.513454 0.859466
vt 0.520263 0.857004
vt 0.634528 0.824343
vt 0.636347 0.818158
vt 0.639915 0.812331
vt 0.645095 0.807087
vt 0.651688 0.802627
vt 0.659440 0.799123
vt 0.668055 0.796709
vt 0.677199 0.795479
vt 0.686523 0.795479
vt 0.695668 0.796709
vt 0.704282 0.799123
vt 0.712035 0.802627
vt 0.718628 0.807087
vt 0.723808 0.812331
vt 0.727376 0.818158
vt 0.729195 0.824343
vt 0.729195 0.830650
vt 0.727376 0.836836
vt 0.723808 0.842663
vt 0.718628 0.847907
vt 0.712035 0.852367
vt 0.704282 0.855871
vt 0.695668 0.858284
vt 0.686523 0.859515
vt 0.677199 0.859515
vt 0.668055 0.858284
vt 0.659440 0.855871
vt 0.651688 0.852367
vt 0.645095 0.847907
vt 0.639915 0.842663
vt 0.636347 0.836836
vt 0.634528 0.830650
vt 0.859703 0.596475
vt 0.867456 0.596475
vt 0.660388 0.795479
vt 0.651065 0.795479
vt 0.783271 0.795479
vt 0.851089 0.596475
vt 0.578429 0.596475
vt 0.586181 0.596475
vt 0.841944 0.596475
vt 0.569814 0.596475
vt 0.832621 0.596475
vt 0.560670 0.596475
vt 0.823476 0.596475
vt 0.551346 0.596475
vt 0.814862 0.596475
vt 0.542201 0.596475
vt 0.807109 0.596475
vt 0.533587 0.596475
vt 0.724084 0.795479
vt 0.716331 0.795479
vt 0.525834 0.596475
vt 0.732698 0.795479
vt 0.519241 0.596475
vt 0.741842 0.795479
vt 0.669533 0.795479
vt 0.625553 0.795479
vt 0.618960 0.795479
vt 0.751166 0.795479
vt 0.678147 0.795479
vt 0.633306 0.795479
vt 0.760311 0.795479
vt 0.685900 0.795479
vt 0.641920 0.795479
vt 0.692493 0.795479
vn -0.0980 0.0000 -0.9952
vn 0.4714 0.0000 -0.8819
vn 0.6344 0.0000 -0.7730
vn 0.7730 0.0000 -0.6344
vn 0.8819 0.0000 -0.4714
vn 0.9569 0.0000 -0.2903
vn 0.9952 0.0000 -0.0980
vn 0.9952 0.0000 0.0980
vn 0.9569 0.0000 0.2903
vn 0.8819 0.0000 0.4714
vn 0.7730 0.0000 0.6344
vn 0.6344 0.0000 0.7730
vn 0.4714 0.0000 0.8819
vn 0.2903 0.0000 0.9569
vn 0.0980 0.0000 0.9952
vn -0.0980 0.0000 0.9952
vn -0.2903 0.0000 0.9569
vn -0.4714 0.0000 0.8819
vn -0.6344 0.0000 0.7730
vn -0.7730 0.0000 0.6344
vn -0.8819 0.0000 0.4714
vn -0.9569 0.0000 0.2903
vn -0.9952 0.0000 0.0980
vn -0.9952 0.0000 -0.0980
vn -0.9569 0.0000 -0.2903
vn -0.8819 0.0000 -0.4714
vn -0.7730 0.0000 -0.6344
vn -0.6344 0.0000 -0.7730
vn -0.4714 0.0000 -0.8819
vn -0.2903 0.0000 -0.9569
vn 0.0980 0.0000 -0.9952
vn 0.2903 0.0000 -0.9569
vn 0.7976 -0.5525 -0.2420
vn 0.0817 -0.5525 0.8295
vn -0.8295 -0.5525 -0.0817
vn 0.3929 -0.5525 -0.7351
vn 0.6443 -0.5525 0.5288
vn -0.6443 -0.5525 0.5288
vn -0.3929 -0.5525 -0.7351
vn 0.8295 -0.5525 -0.0817
vn -0.0817 -0.5525 0.8295
vn -0.7976 -0.5525 -0.2420
vn 0.5288 -0.5525 -0.6443
vn 0.5288 -0.5525 0.6443
vn -0.7351 -0.5525 0.3929
vn -0.2420 -0.5525 -0.7976
vn 0.8295 -0.5525 0.0817
vn -0.2420 -0.5525 0.7976
vn -0.7351 -0.5525 -0.3929
vn 0.6443 -0.5525 -0.5288
vn 0.3929 -0.5525 0.7351
vn -0.7976 -0.5525 0.2420
vn 0.0817 -0.5525 -0.8295
vn -0.0817 -0.5525 -0.8295
vn 0.7976 -0.5525 0.2420
vn -0.3929 -0.5525 0.7351
vn -0.6443 -0.5525 -0.5288
vn 0.7351 -0.5525 -0.3929
vn 0.2420 -0.5525 0.7976
vn -0.8295 -0.5525 0.0817
vn 0.2420 -0.5525 -0.7976
vn 0.7351 -0.5525 0.3929
vn -0.5288 -0.5525 0.6443
vn -0.5288 -0.5525 -0.6443
vn 0.0690 0.7103 -0.7005
vn 0.2043 0.7103 -0.6736
vn 0.3318 0.7103 -0.6208
vn 0.4465 0.7103 -0.5441
vn 0.5441 0.7103 -0.4465
vn 0.6208 0.7103 -0.3318
vn 0.6736 0.7103 -0.2043
vn 0.7005 0.7103 -0.0690
vn 0.7005 0.7103 0.0690
vn 0.6736 0.7103 0.2043
vn 0.6208 0.7103 0.3318
vn 0.5441 0.7103 0.4465
vn 0.4465 0.7103 0.5441
vn 0.3318 0.7103 0.6208
vn 0.2043 0.7103 0.6736
vn 0.0690 0.7103 0.7005
vn -0.0690 0.7103 0.7005
vn -0.2043 0.7103 0.6736
vn -0.3318 0.7103 0.6208
vn -0.4465 0.7103 0.5441
vn -0.5441 0.7103 0.4465
vn -0.6208 0.7103 0.3318
vn -0.6736 0.7103 0.2043
vn -0.7005 0.7103 0.0690
vn -0.7005 0.7103 -0.0690
vn -0.6736 0.7103 -0.2043
vn -0.6208 0.7103 -0.3318
vn -0.5441 0.7103 -0.4465
vn -0.4465 0.7103 -0.5441
vn -0.3318 0.7103 -0.6208
vn -0.2043 0.7103 -0.6736
vn -0.0690 0.7103 -0.7005
vn 0.0000 1.0000 0.0000
vn 0.0000 -1.0000 0.0000
g Cylinder_Cylinder_rust
usemtl rust
s off
f 32/1/1 128/2/1 66/3/1 1/4/1
f 3/5/2 70/6/2 72/7/2 4/8/2
f 4/9/3 72/10/3 74/11/3 5/12/3
f 5/12/4 74/11/4 76/13/4 6/14/4
f 6/14/5 76/13/5 78/15/5 7/16/5
f 7/16/6 78/15/6 80/17/6 8/18/6
f 8/18/7 80/17/7 82/19/7 9/20/7
f 9/20/8 82/19/8 84/21/8 10/22/8
f 10/22/9 84/21/9 86/23/9 11/24/9
f 11/24/10 86/23/10 88/25/10 12/26/10
f 12/27/11 88/28/11 90/29/11 13/30/11
f 13/30/12 90/29/12 92/31/12 14/32/12
f 14/32/13 92/31/13 94/33/13 15/34/13
f 15/34/14 94/33/14 96/35/14 16/36/14
f 16/36/15 96/35/15 98/37/15 17/38/15
f 17/38/16 98/37/16 100/39/16 18/40/16
f 18/40/17 100/39/17 102/41/17 19/42/17
f 19/43/18 102/44/18 104/45/18 20/46/18
f 20/46/19 104/45/19 106/47/19 21/48/19
f 21/48/20 106/47/20 108/49/20 22/50/20
f 22/50/21 108/49/21 110/51/21 23/52/21
f 23/52/22 110/51/22 112/53/22 24/54/22
f 24/54/23 112/53/23 114/55/23 25/56/23
f 25/56/24 114/55/24 116/57/24 26/58/24
f 26/58/25 116/57/25 118/59/25 27/60/25
f 27/60/26 118/59/26 120/61/26 28/62/26
f 28/63/27 120/64/27 122/65/27 29/66/27
f 29/66/28 122/65/28 124/67/28 30/68/28
f 30/68/29 124/67/29 126/69/29 31/70/29
f 31/70/30 126/69/30 128/2/30 32/1/30
f 1/4/31 66/3/31 68/71/31 2/72/31
f 2/72/32 68/71/32 70/6/32 3/5/32
f 7/16/33 8/18/33 40/73/33 39/74/33
f 50/75/17 51/76/17 147/77/17 146/78/17
f 16/36/34 17/38/34 49/79/34 48/80/34
f 25/56/35 26/58/35 58/81/35 57/82/35
f 3/5/36 4/8/36 36/83/36 35/84/36
f 12/27/37 13/30/37 45/85/37 44/86/37
f 21/48/38 22/50/38 54/87/38 53/88/38
f 30/68/39 31/70/39 63/89/39 62/90/39
f 8/18/40 9/20/40 41/91/40 40/73/40
f 17/38/41 18/40/41 50/75/41 49/79/41
f 26/58/42 27/60/42 59/92/42 58/81/42
f 4/8/43 5/93/43 37/94/43 36/83/43
f 13/30/44 14/32/44 46/95/44 45/85/44
f 22/50/45 23/52/45 55/96/45 54/87/45
f 31/70/46 32/1/46 64/97/46 63/89/46
f 9/20/47 10/22/47 42/98/47 41/91/47
f 18/40/48 19/42/48 51/76/48 50/75/48
f 27/60/49 28/62/49 60/99/49 59/92/49
f 5/12/50 6/14/50 38/100/50 37/101/50
f 14/32/51 15/34/51 47/102/51 46/95/51
f 23/52/52 24/54/52 56/103/52 55/96/52
f 1/4/53 2/72/53 34/104/53 33/105/53
f 32/1/54 1/4/54 33/105/54 64/97/54
f 10/22/55 11/24/55 43/106/55 42/98/55
f 19/42/56 20/107/56 52/108/56 51/76/56
f 28/63/57 29/66/57 61/109/57 60/110/57
f 6/14/58 7/16/58 39/74/58 38/100/58
f 15/34/59 16/36/59 48/80/59 47/102/59
f 24/54/60 25/56/60 57/82/60 56/103/60
f 2/72/61 3/5/61 35/84/61 34/104/61
f 11/24/62 12/26/62 44/111/62 43/106/62
f 20/46/63 21/48/63 53/88/63 52/112/63
f 29/66/64 30/68/64 62/90/64 61/109/64
f 68/113/65 66/114/65 65/115/65 67/116/65
f 70/117/66 68/113/66 67/116/66 69/118/66
f 72/119/67 70/117/67 69/118/67 71/120/67
f 74/121/68 72/119/68 71/120/68 73/122/68
f 76/123/69 74/121/69 73/122/69 75/124/69
f 78/125/70 76/123/70 75/124/70 77/126/70
f 80/127/71 78/125/71 77/126/71 79/128/71
f 82/129/72 80/127/72 79/128/72 81/130/72
f 84/131/73 82/129/73 81/130/73 83/132/73
f 86/133/74 84/131/74 83/132/74 85/134/74
f 88/135/75 86/133/75 85/134/75 87/136/75
f 90/137/76 88/135/76 87/136/76 89/138/76
f 92/139/77 90/137/77 89/138/77 91/140/77
f 94/141/78 92/139/78 91/140/78 93/142/78
f 96/143/79 94/141/79 93/142/79 95/144/79
f 98/145/80 96/143/80 95/144/80 97/146/80
f 100/147/81 98/145/81 97/146/81 99/148/81
f 102/149/82 100/147/82 99/148/82 101/150/82
f 104/151/83 102/149/83 101/150/83 103/152/83
f 106/153/84 104/151/84 103/152/84 105/154/84
f 108/155/85 106/153/85 105/154/85 107/156/85
f 110/157/86 108/155/86 107/156/86 109/158/86
f 112/159/87 110/157/87 109/158/87 111/160/87
f 114/161/88 112/159/88 111/160/88 113/162/88
f 116/163/89 114/161/89 113/162/89 115/164/89
f 118/165/90 116/163/90 115/164/90 117/166/90
f 120/167/91 118/165/91 117/166/91 119/168/91
f 122/169/92 120/167/92 119/168/92 121/170/92
f 124/171/93 122/169/93 121/170/93 123/172/93
f 126/173/94 124/171/94 123/172/94 125/174/94
f 128/175/95 126/173/95 125/174/95 127/176/95
f 66/114/96 128/175/96 127/176/96 65/115/96
f 67/116/97 65/115/97 127/176/97 125/174/97 123/172/97 121/170/97 119/168/97 117/166/97 115/164/97 113/162/97 111/160/97 109/158/97 107/156/97 105/154/97 103/152/97 101/150/97 99/148/97 97/146/97 95/144/97 93/142/97 91/140/97 89/138/97 87/136/97 85/134/97 83/132/97 81/130/97 79/128/97 77/126/97 75/124/97 73/122/97 71/120/97 69/118/97
f 129/177/98 130/178/98 131/179/98 132/180/98 133/181/98 134/182/98 135/183/98 136/184/98 137/185/98 138/186/98 139/187/98 140/188/98 141/189/98 142/190/98 143/191/98 144/192/98 145/193/98 146/194/98 147/195/98 148/196/98 149/197/98 150/198/98 151/199/98 152/200/98 153/201/98 154/202/98 155/203/98 156/204/98 157/205/98 158/206/98 159/207/98 160/208/98
f 37/101/4 38/100/4 134/209/4 133/210/4
f 64/97/1 33/105/1 129/211/1 160/212/1
f 51/76/18 52/108/18 148/213/18 147/77/18
f 38/100/5 39/74/5 135/214/5 134/209/5
f 52/112/19 53/88/19 149/215/19 148/216/19
f 39/74/6 40/73/6 136/217/6 135/214/6
f 53/88/20 54/87/20 150/218/20 149/215/20
f 40/73/7 41/91/7 137/219/7 136/217/7
f 54/87/21 55/96/21 151/220/21 150/218/21
f 41/91/8 42/98/8 138/221/8 137/219/8
f 55/96/22 56/103/22 152/222/22 151/220/22
f 42/98/9 43/106/9 139/223/9 138/221/9
f 56/103/23 57/82/23 153/224/23 152/222/23
f 43/106/10 44/111/10 140/225/10 139/223/10
f 57/82/24 58/81/24 154/226/24 153/224/24
f 44/86/11 45/85/11 141/227/11 140/228/11
f 58/81/25 59/92/25 155/229/25 154/226/25
f 45/85/12 46/95/12 142/230/12 141/227/12
f 59/92/26 60/99/26 156/231/26 155/229/26
f 46/95/13 47/102/13 143/232/13 142/230/13
f 33/105/31 34/104/31 130/233/31 129/211/31
f 60/110/27 61/109/27 157/234/27 156/235/27
f 47/102/14 48/80/14 144/236/14 143/232/14
f 34/104/32 35/84/32 131/237/32 130/233/32
f 61/109/28 62/90/28 158/238/28 157/234/28
f 48/80/15 49/79/15 145/239/15 144/236/15
f 35/84/2 36/83/2 132/240/2 131/237/2
f 62/90/29 63/89/29 159/241/29 158/238/29
f 49/79/16 50/75/16 146/78/16 145/239/16
f 36/83/3 37/94/3 133/242/3 132/240/3
f 63/89/30 64/97/30 160/212/30 159/241/30
