# Blender v2.81 (sub 16) OBJ File: 'section2.blend'
# www.blender.org
mtllib sym_pillar05.mtl
o Cube.021
v -4.513295 0.006662 0.366597
v -4.513295 0.006662 -0.366597
v -4.513295 1.217563 -0.366597
v -3.780101 0.006662 0.366597
v -3.780101 0.006662 -0.366597
v -3.780101 1.217563 -0.366597
v -4.452851 0.692862 0.326235
v -4.452851 1.177201 -0.158104
v -3.840544 1.177201 -0.158104
v -3.840544 0.692862 0.326235
v -3.780101 0.652500 0.366597
v -3.780101 1.217563 -0.198466
v -4.513295 1.217563 -0.198466
v -4.513295 0.652500 0.366597
v -3.868888 0.632735 0.221267
v -3.868888 1.072233 -0.218231
v -4.424507 1.072233 -0.218231
v -4.424507 0.632735 0.221267
vt 0.391843 0.089628
vt 0.537332 0.093066
vt 0.536325 0.117016
vt 0.390835 0.113578
vt 0.312947 0.146203
vt 0.072665 0.140525
vt 0.077212 0.032449
vt 0.317494 0.038127
vt 0.168753 0.055184
vt 0.296456 0.058201
vt 0.405489 0.143857
vt 0.404686 0.168558
vt 0.165253 0.162899
vt 0.529293 0.284163
vt 0.383803 0.280725
vt 0.388350 0.172648
vt 0.533839 0.176086
vt 0.153432 0.059683
vt 0.392864 0.065341
vt 0.391589 0.090031
vt 0.275573 0.170368
vt 0.147871 0.167350
vt 0.634846 0.095370
vt 0.513344 0.092499
vt 0.519694 0.075400
vt 0.629946 0.078006
vt 0.233905 0.181677
vt 0.053269 0.177408
vt 0.059901 0.019772
vt 0.240536 0.024041
vt 0.385130 0.380021
vt 0.453290 0.381632
vt 0.458595 0.390676
vt 0.379075 0.388797
vt 0.524153 0.120952
vt 0.402652 0.118080
vt 0.522023 0.171584
vt 0.533839 0.176086
vt 0.457087 0.291375
vt 0.463142 0.282599
vt 0.693789 0.683558
vt 0.337902 0.680292
vt 0.339489 0.453808
vt 0.695376 0.457073
vt 0.394501 0.026452
vt 0.516002 0.029323
vt 0.509653 0.046422
vt 0.399400 0.043816
vt 0.153141 0.042076
vt 0.289059 0.045288
vt 0.282028 0.062722
vt 0.158693 0.059808
vt 0.989720 0.000000
vt 0.989720 0.210704
vt 0.941197 0.200950
vt 0.941197 0.009754
vn 0.0000 1.0000 0.0000
vn 0.0000 0.0000 -1.0000
vn -1.0000 0.0000 0.0000
vn 0.0000 -1.0000 0.0000
vn 1.0000 0.0000 0.0000
vn 0.0000 0.8677 -0.4970
vn -0.0000 0.0000 1.0000
vn 0.0000 0.7071 0.7071
vn -0.0000 -0.4970 0.8677
vn 0.9718 0.1668 0.1668
vn -0.9718 0.1668 0.1668
g Cube.021_Cube.021_symbols
usemtl symbols
s off
f 6/1/1 3/2/1 13/3/1 12/4/1
f 2/5/2 3/6/2 6/7/2 5/8/2
f 1/9/3 14/10/3 13/11/3 3/12/3 2/13/3
f 2/14/4 5/15/4 4/16/4 1/17/4
f 5/18/5 6/19/5 12/20/5 11/21/5 4/22/5
f 7/23/6 10/24/6 15/25/6 18/26/6
f 4/27/7 11/28/7 14/29/7 1/30/7
f 9/31/8 10/32/8 11/33/8 12/34/8
f 8/35/8 9/36/8 12/4/8 13/3/8
f 7/37/8 8/35/8 13/3/8 14/38/8
f 10/32/8 7/39/8 14/40/8 11/33/8
f 16/41/8 17/42/8 18/43/8 15/44/8
f 9/45/9 8/46/9 17/47/9 16/48/9
f 8/49/10 7/50/10 18/51/10 17/52/10
f 10/53/11 9/54/11 16/55/11 15/56/11
