# Blender v2.81 (sub 16) OBJ File: 'section2.blend'
# www.blender.org
mtllib trapdoor.mtl
o Cylinder.008
v -17.308470 5.025960 -11.703230
v -17.308470 5.071776 -11.703230
v -16.808470 5.025960 -11.569255
v -16.808470 5.071776 -11.569255
v -16.442444 5.025960 -11.203230
v -16.442444 5.071776 -11.203230
v -16.308470 5.025960 -10.703230
v -16.308470 5.071776 -10.703230
v -16.442444 5.025960 -10.203230
v -16.442444 5.071776 -10.203230
v -16.808470 5.025960 -9.837205
v -16.808470 5.071776 -9.837205
v -17.308470 5.025960 -9.703230
v -17.308470 5.071776 -9.703230
v -17.808470 5.025960 -9.837204
v -17.808470 5.071776 -9.837204
v -18.174496 5.025960 -10.203230
v -18.174496 5.071776 -10.203230
v -18.308470 5.025960 -10.703230
v -18.308470 5.071776 -10.703230
v -18.174496 5.025960 -11.203230
v -18.174496 5.071776 -11.203230
v -17.808470 5.025960 -11.569255
v -17.808470 5.071776 -11.569255
vt 0.150884 0.676271
vt 0.139026 0.676271
vt 0.139026 0.589312
vt 0.150884 0.589312
vt 0.139026 0.488900
vt 0.150884 0.488900
vt 0.139026 0.401941
vt 0.150884 0.401941
vt 0.139026 0.351735
vt 0.150884 0.351735
vt 0.125870 0.721547
vt 0.114012 0.721547
vt 0.114012 0.671341
vt 0.125870 0.671341
vt 0.114012 0.584382
vt 0.125870 0.584382
vt 0.114012 0.483970
vt 0.125870 0.483970
vt 0.114012 0.397011
vt 0.125870 0.397011
vt 0.114012 0.346806
vt 0.125870 0.346806
vt 0.149586 0.621135
vt 0.137728 0.621135
vt 0.137728 0.534176
vt 0.149586 0.534176
vt 0.175319 0.774195
vt 0.056459 0.619898
vt 0.056459 0.441731
vt 0.175319 0.287434
vt 0.381190 0.198351
vt 0.618910 0.198351
vt 0.824781 0.287434
vt 0.943641 0.441731
vt 0.943641 0.619898
vt 0.824781 0.774195
vt 0.618910 0.863278
vt 0.381190 0.863278
vt 0.137728 0.433765
vt 0.149586 0.433765
vt 0.137728 0.346806
vt 0.149586 0.346806
vt 0.187238 0.768473
vt 0.074383 0.621971
vt 0.074383 0.452804
vt 0.187238 0.306302
vt 0.382710 0.221719
vt 0.608420 0.221719
vt 0.803892 0.306302
vt 0.916747 0.452805
vt 0.916747 0.621971
vt 0.803892 0.768473
vt 0.608420 0.853056
vt 0.382709 0.853056
vn 0.2588 0.0000 -0.9659
vn 0.7071 0.0000 -0.7071
vn 0.9659 0.0000 -0.2588
vn 0.9659 0.0000 0.2588
vn 0.7071 0.0000 0.7071
vn 0.2588 0.0000 0.9659
vn -0.2588 0.0000 0.9659
vn -0.7071 0.0000 0.7071
vn -0.9659 0.0000 0.2588
vn -0.9659 0.0000 -0.2588
vn 0.0000 1.0000 0.0000
vn -0.7071 0.0000 -0.7071
vn -0.2588 0.0000 -0.9659
vn 0.0000 -1.0000 0.0000
g Cylinder.008_Cylinder.008_metal_lid
usemtl metal_lid
s off
f 1/1/1 2/2/1 4/3/1 3/4/1
f 3/4/2 4/3/2 6/5/2 5/6/2
f 5/6/3 6/5/3 8/7/3 7/8/3
f 7/8/4 8/7/4 10/9/4 9/10/4
f 9/11/5 10/12/5 12/13/5 11/14/5
f 11/14/6 12/13/6 14/15/6 13/16/6
f 13/16/7 14/15/7 16/17/7 15/18/7
f 15/18/8 16/17/8 18/19/8 17/20/8
f 17/20/9 18/19/9 20/21/9 19/22/9
f 19/23/10 20/24/10 22/25/10 21/26/10
f 4/27/11 2/28/11 24/29/11 22/30/11 20/31/11 18/32/11 16/33/11 14/34/11 12/35/11 10/36/11 8/37/11 6/38/11
f 21/26/12 22/25/12 24/39/12 23/40/12
f 23/40/13 24/39/13 2/41/13 1/42/13
f 1/43/14 3/44/14 5/45/14 7/46/14 9/47/14 11/48/14 13/49/14 15/50/14 17/51/14 19/52/14 21/53/14 23/54/14
