# Blender v2.81 (sub 16) OBJ File: 'section2.blend'
# www.blender.org
mtllib wood_table.mtl
o Cube.014
v 30.329218 1.176505 0.681669
v 30.329218 1.268419 0.681669
v 30.329218 1.176505 -0.695179
v 30.329218 1.268419 -0.695179
v 33.398556 1.176505 0.681669
v 33.398556 1.268419 0.681669
v 33.398556 1.176505 -0.695179
v 33.398556 1.268419 -0.695179
v 30.414900 0.067872 -0.536467
v 30.414900 1.195473 -0.536467
v 30.414900 0.067872 -0.622050
v 30.414900 1.195473 -0.622050
v 30.500483 0.067872 -0.536467
v 30.500483 1.195473 -0.536467
v 30.500483 0.067872 -0.622050
v 30.500483 1.195473 -0.622050
v 33.213287 0.067872 -0.536467
v 33.213287 1.195473 -0.536467
v 33.213287 0.067872 -0.622050
v 33.213287 1.195473 -0.622050
v 33.298870 0.067872 -0.536467
v 33.298870 1.195473 -0.536467
v 33.298870 0.067872 -0.622050
v 33.298870 1.195473 -0.622050
v 33.213287 0.067872 0.571228
v 33.213287 1.195473 0.571228
v 33.213287 0.067872 0.485645
v 33.213287 1.195473 0.485645
v 33.298870 0.067872 0.571228
v 33.298870 1.195473 0.571228
v 33.298870 0.067872 0.485645
v 33.298870 1.195473 0.485645
v 30.403238 0.067872 0.571228
v 30.403238 1.195473 0.571228
v 30.403238 0.067872 0.485645
v 30.403238 1.195473 0.485645
v 30.488823 0.067872 0.571228
v 30.488823 1.195473 0.571228
v 30.488823 0.067872 0.485645
v 30.488823 1.195473 0.485645
vt 0.354220 0.153137
vt 0.354357 0.177478
vt 0.067954 0.180341
vt 0.067817 0.156001
vt 0.706555 0.198298
vt 0.706692 0.222638
vt 0.068228 0.229022
vt 0.068091 0.204682
vt 0.640624 0.150274
vt 0.640761 0.174614
vt 0.354357 0.177478
vt 0.354220 0.153138
vt 0.068091 0.204682
vt 0.067954 0.180342
vt 0.706419 0.173957
vt 0.706555 0.198297
vt 0.708743 0.587250
vt 0.070278 0.593634
vt 0.068228 0.229022
vt 0.706692 0.222638
vt 0.070278 0.593634
vt 0.708743 0.587250
vt 0.710794 0.951861
vt 0.072329 0.958246
vt 0.536803 0.128647
vt 0.771359 0.126301
vt 0.771487 0.148965
vt 0.536930 0.151311
vt 0.770977 0.058310
vt 0.536420 0.060656
vt 0.536293 0.037992
vt 0.770849 0.035646
vt 0.067179 0.042682
vt 0.301736 0.040337
vt 0.301864 0.063001
vt 0.067307 0.065346
vt 0.302246 0.130992
vt 0.067689 0.133337
vt 0.067562 0.110674
vt 0.302119 0.108328
vt 0.728596 0.951683
vt 0.710794 0.951861
vt 0.710666 0.929198
vt 0.728469 0.929020
vt 0.710666 0.929198
vt 0.710539 0.906534
vt 0.728341 0.906356
vt 0.728469 0.929020
vt 0.301991 0.085665
vt 0.067434 0.088010
vt 0.067307 0.065346
vt 0.301864 0.063001
vt 0.302373 0.153656
vt 0.067817 0.156001
vt 0.067689 0.133337
vt 0.302246 0.130992
vt 0.536420 0.060656
vt 0.770977 0.058310
vt 0.771104 0.080974
vt 0.536548 0.083319
vt 0.536930 0.151310
vt 0.302374 0.153656
vt 0.302246 0.130992
vt 0.536803 0.128647
vt 0.711843 0.151238
vt 0.711971 0.173902
vt 0.694168 0.174080
vt 0.694041 0.151416
vt 0.676238 0.151594
vt 0.694041 0.151416
vt 0.694168 0.174080
vt 0.676366 0.174258
vt 0.536675 0.105983
vt 0.302119 0.108328
vt 0.301991 0.085665
vt 0.536548 0.083319
vt 0.301864 0.063001
vt 0.536420 0.060656
vt 0.067052 0.020019
vt 0.301609 0.017673
vt 0.301736 0.040337
vt 0.067179 0.042682
vt 0.536803 0.128647
vt 0.302246 0.130992
vt 0.728341 0.906356
vt 0.710539 0.906534
vt 0.710411 0.883870
vt 0.728214 0.883692
vt 0.658436 0.151772
vt 0.676238 0.151594
vt 0.676366 0.174258
vt 0.658563 0.174436
vt 0.536675 0.105983
vt 0.771232 0.103638
vt 0.771359 0.126301
vt 0.536803 0.128647
vt 0.536420 0.060656
vt 0.301864 0.063001
vt 0.301736 0.040337
vt 0.536293 0.037992
vt 0.536548 0.083319
vt 0.771104 0.080974
vt 0.771232 0.103638
vt 0.536675 0.105983
vt 0.302119 0.108328
vt 0.067562 0.110674
vt 0.067434 0.088010
vt 0.301991 0.085665
vt 0.658563 0.174436
vt 0.640761 0.174614
vt 0.640633 0.151950
vt 0.658436 0.151772
vt 0.710284 0.861207
vt 0.728086 0.861029
vt 0.728214 0.883692
vt 0.710411 0.883870
vn -1.0000 0.0000 0.0000
vn 0.0000 0.0000 -1.0000
vn 1.0000 0.0000 0.0000
vn 0.0000 0.0000 1.0000
vn 0.0000 -1.0000 0.0000
vn 0.0000 1.0000 0.0000
g Cube.014_Cube.014_wood01
usemtl wood01
s off
f 1/1/1 2/2/1 4/3/1 3/4/1
f 3/5/2 4/6/2 8/7/2 7/8/2
f 7/9/3 8/10/3 6/11/3 5/12/3
f 5/13/4 6/14/4 2/15/4 1/16/4
f 3/17/5 7/18/5 5/19/5 1/20/5
f 8/21/6 4/22/6 2/23/6 6/24/6
f 9/25/1 10/26/1 12/27/1 11/28/1
f 11/29/2 12/30/2 16/31/2 15/32/2
f 15/33/3 16/34/3 14/35/3 13/36/3
f 13/37/4 14/38/4 10/39/4 9/40/4
f 11/41/5 15/42/5 13/43/5 9/44/5
f 16/45/6 12/46/6 10/47/6 14/48/6
f 17/49/1 18/50/1 20/51/1 19/52/1
f 19/53/2 20/54/2 24/55/2 23/56/2
f 23/57/3 24/58/3 22/59/3 21/60/3
f 21/61/4 22/62/4 18/63/4 17/64/4
f 19/65/5 23/66/5 21/67/5 17/68/5
f 24/69/6 20/70/6 18/71/6 22/72/6
f 25/73/1 26/74/1 28/75/1 27/76/1
f 27/76/2 28/75/2 32/77/2 31/78/2
f 31/79/3 32/80/3 30/81/3 29/82/3
f 29/83/4 30/84/4 26/74/4 25/73/4
f 27/85/5 31/86/5 29/87/5 25/88/5
f 32/89/6 28/90/6 26/91/6 30/92/6
f 33/93/1 34/94/1 36/95/1 35/96/1
f 35/97/2 36/98/2 40/99/2 39/100/2
f 39/101/3 40/102/3 38/103/3 37/104/3
f 37/105/4 38/106/4 34/107/4 33/108/4
f 35/109/5 39/110/5 37/111/5 33/112/5
f 40/113/6 36/114/6 34/115/6 38/116/6
